<svg width="49" height="59" viewBox="0 0 49 59" fill="none" xmlns="http://www.w3.org/2000/svg">
<path d="M40.5262 31.5138C40.4593 24.262 46.6162 20.734 46.8978 20.5698C43.4108 15.613 38.0062 14.9358 36.107 14.8818C31.5678 14.416 27.1647 17.53 24.8524 17.53C22.4939 17.53 18.9331 14.9268 15.0954 15.0033C10.157 15.0775 5.53698 17.8653 3.00313 22.1943C-2.2261 31.021 1.6739 43.9923 6.6839 51.127C9.19006 54.6213 12.1185 58.5228 15.9516 58.3855C19.7016 58.2348 21.1024 56.0545 25.6278 56.0545C30.1116 56.0545 31.427 58.3855 35.3362 58.2978C39.3608 58.2348 41.8947 54.7878 44.3131 51.262C47.2093 47.257 48.3724 43.3128 48.4185 43.1103C48.3239 43.0788 40.6024 40.2055 40.5262 31.5138Z" fill="black"/>
<path d="M33.1416 10.1883C35.1585 7.72904 36.5385 4.38329 36.1554 0.988037C33.2362 1.11404 29.5854 2.95679 27.4831 5.36204C25.6231 7.48154 23.9616 10.9555 24.3908 14.2225C27.6701 14.461 31.037 12.6093 33.1416 10.1883Z" fill="black"/>
</svg>
