<svg width="1084" height="708" viewBox="0 0 1084 708" fill="none" xmlns="http://www.w3.org/2000/svg">
<path d="M147 560.795C147 561.379 147.233 561.941 147.647 562.354C148.061 562.768 148.622 563 149.208 563H1048.8C1049.38 562.999 1049.94 562.767 1050.35 562.353C1050.77 561.939 1051 561.379 1051 560.795C1051 560.21 1050.77 559.65 1050.35 559.236C1049.94 558.822 1049.38 558.59 1048.8 558.589H149.208C148.918 558.589 148.631 558.646 148.363 558.757C148.095 558.868 147.852 559.03 147.647 559.235C147.442 559.44 147.279 559.683 147.168 559.95C147.057 560.218 147 560.505 147 560.795Z" fill="#FEE2BF"/>
<path d="M261.431 241.559L258.511 246.949L249.306 243.213L244.063 250.567L236.717 248.897L235.871 252.61L245.693 254.848L250.665 247.875L260.239 251.765L264.636 243.65L261.431 241.559Z" fill="#8CD334"/>
<path d="M652.56 77L649.64 82.3902L640.435 78.6543L635.192 86.0087L627.846 84.3381L627 88.0512L636.822 90.2896L641.794 83.3169L651.368 87.2062L655.765 79.0915L652.56 77Z" fill="#8CD334"/>
<path d="M512.048 52.8713L509.65 59.1164L514.926 62.2194L511.699 69.1855L519.006 70.6571L515.729 78.5825L522.03 80.7295L520.231 88.4788L516.909 88.668L518.254 82.8732L511.604 80.6088L514.753 72.9868L507.325 71.4924L510.885 63.8051L505.734 60.7772L507.955 54.9889L503.882 53.7457L505.708 50.9397L512.048 52.8713Z" fill="#FCC13F"/>
<path d="M335.982 51.5922L328.155 53.5467L323.615 41.3143L311.817 42.763L306.923 34.1621L302.566 36.6386L309.112 48.1401L320.29 46.7698L325.013 59.4949L336.792 56.5518L335.982 51.5922Z" fill="#8CD334"/>
<path d="M458.76 122.843L463.889 121.258C463.889 121.258 468.939 114.533 468.614 112.763C468.289 110.993 466.142 107.677 467.014 106.93C467.885 106.182 469.912 105.207 471.943 107.085C473.416 108.448 474.409 114.692 475.136 114.921C475.59 115.061 478.563 114.234 480.728 113.596C481.43 113.391 482.176 113.38 482.884 113.565C483.592 113.749 484.234 114.123 484.74 114.643C485.082 114.992 485.294 115.444 485.342 115.927C485.39 116.409 485.27 116.893 485.003 117.3L484.14 118.592L485.407 119.531C485.86 119.869 486.161 120.366 486.248 120.917C486.334 121.469 486.199 122.032 485.87 122.487L485.17 123.441L486.004 123.969C486.258 124.131 486.474 124.343 486.64 124.591C486.806 124.839 486.918 125.117 486.969 125.41C487.02 125.702 487.008 126.002 486.936 126.289C486.863 126.577 486.731 126.847 486.547 127.083L485.91 127.882L486.096 128.069C486.473 128.447 486.695 128.947 486.72 129.474C486.745 130.002 486.572 130.52 486.233 130.931L485.574 131.702L471.934 135.922C470.653 136.316 469.302 136.446 467.967 136.301L462.916 136.99C462.651 137.025 462.381 136.965 462.156 136.821C461.932 136.678 461.768 136.459 461.693 136.206L458.051 124.208C457.964 123.935 457.989 123.639 458.122 123.384C458.254 123.129 458.483 122.934 458.76 122.843Z" fill="#FCC13F"/>
<path d="M420.639 71.6719L413.626 71.1074L412.669 77.5874L405.734 77.3362L404.055 83.4149L398.835 84.074L399.169 86.7136L406.149 85.8326L407.743 80.0705L414.956 80.3348L415.896 73.9592L422.253 74.4714L420.639 71.6719Z" fill="#8CD334"/>
<path d="M268.725 196.75L263.032 198.499L261.245 204.176C261.212 204.279 261.151 204.37 261.068 204.44C260.986 204.51 260.886 204.556 260.779 204.572C260.672 204.589 260.563 204.575 260.463 204.532C260.364 204.49 260.278 204.421 260.216 204.333L256.79 199.464L250.835 199.523C250.726 199.524 250.62 199.495 250.527 199.439C250.434 199.382 250.359 199.301 250.31 199.204C250.261 199.108 250.24 198.999 250.25 198.891C250.259 198.783 250.299 198.68 250.364 198.593L253.957 193.836L252.066 188.194C252.032 188.092 252.027 187.982 252.052 187.877C252.077 187.771 252.131 187.675 252.207 187.599C252.284 187.522 252.381 187.469 252.486 187.445C252.592 187.42 252.702 187.426 252.804 187.46L258.439 189.389L263.228 185.845C263.314 185.781 263.416 185.742 263.523 185.732C263.63 185.723 263.737 185.743 263.833 185.792C263.929 185.84 264.01 185.914 264.066 186.005C264.123 186.096 264.152 186.201 264.152 186.309L264.057 192.257L268.911 195.709C269.003 195.772 269.075 195.861 269.118 195.963C269.161 196.066 269.173 196.179 269.154 196.289C269.134 196.399 269.083 196.501 269.007 196.582C268.931 196.664 268.833 196.722 268.725 196.75Z" fill="#FCC13F"/>
<path d="M464.959 43.7221C464.959 45.0795 458.69 46.1791 450.962 46.1791C443.233 46.1791 436.949 45.0893 436.949 43.7221C436.949 42.355 443.217 41.262 450.949 41.262C458.681 41.262 464.959 42.3746 464.959 43.7221Z" fill="#FCC13F"/>
<path d="M450.962 0C444.592 0 439.431 4.60061 439.431 10.278C439.431 15.9553 450.962 43.7221 450.962 43.7221C450.962 43.7221 462.492 15.9455 462.492 10.2682C462.492 4.59083 457.328 0 450.962 0ZM450.962 16.249C449.993 16.249 449.045 15.9619 448.24 15.4241C447.434 14.8864 446.806 14.122 446.435 13.2277C446.064 12.3334 445.967 11.3493 446.156 10.3999C446.345 9.45049 446.812 8.57841 447.497 7.89394C448.182 7.20946 449.055 6.74333 450.006 6.55448C450.956 6.36563 451.942 6.46255 452.837 6.83299C453.732 7.20343 454.497 7.83074 455.036 8.6356C455.574 9.44046 455.862 10.3867 455.862 11.3547C455.862 12.6528 455.345 13.8976 454.426 14.8155C453.508 15.7333 452.261 16.249 450.962 16.249Z" fill="#FC008B"/>
<path d="M760.268 94.8837L768.953 136.547L826.639 124.553C827.505 124.372 828.264 123.856 828.749 123.117C829.234 122.378 829.406 121.477 829.226 120.611L821.89 85.4867C821.801 85.0578 821.628 84.6506 821.381 84.2885C821.134 83.9264 820.818 83.6165 820.452 83.3765C820.085 83.1365 819.674 82.971 819.243 82.8897C818.812 82.8084 818.37 82.8127 817.94 82.9025L760.268 94.8837Z" fill="#D1F7FA"/>
<path d="M778.096 120.663L780.539 114.056L777.622 114.412C777.536 114.423 777.455 114.46 777.39 114.518C777.325 114.577 777.28 114.653 777.26 114.738L775.466 121.59L777.495 121.169C777.629 121.141 777.754 121.08 777.859 120.992C777.964 120.903 778.045 120.791 778.096 120.663Z" fill="#7271B3"/>
<path d="M771.602 116.983L772.82 115.025L771.586 115.211C771.553 115.215 771.521 115.226 771.493 115.243C771.464 115.261 771.44 115.284 771.422 115.312L770.469 117.322L771.334 117.139C771.44 117.122 771.535 117.066 771.602 116.983Z" fill="#7271B3"/>
<path d="M774.996 105.788L779.88 110.875L777.061 111.71C776.977 111.734 776.888 111.732 776.806 111.705C776.723 111.679 776.65 111.628 776.597 111.56L772.216 105.994L774.245 105.573C774.378 105.544 774.517 105.548 774.648 105.586C774.779 105.624 774.898 105.693 774.996 105.788Z" fill="#7271B3"/>
<path d="M770.511 111.756L772.412 113.061L771.203 113.387C771.172 113.397 771.138 113.4 771.105 113.395C771.072 113.389 771.041 113.377 771.014 113.358L769.338 111.896L770.204 111.717C770.308 111.691 770.417 111.705 770.511 111.756Z" fill="#7271B3"/>
<path d="M780.007 111.005L771.775 113.475C771.406 113.586 770.263 114.151 770.341 114.529C770.42 114.908 771.694 114.97 772.079 114.924L780.611 113.906C781.477 113.802 785.014 112.366 784.838 111.514C784.661 110.663 780.843 110.757 780.007 111.005Z" fill="#7271B3"/>
<path d="M771.968 106.982L766.65 108.088C766.592 108.1 766.532 108.088 766.483 108.056C766.433 108.024 766.398 107.973 766.386 107.915C766.38 107.887 766.379 107.857 766.385 107.828C766.39 107.799 766.401 107.772 766.417 107.747C766.433 107.723 766.454 107.701 766.478 107.685C766.503 107.668 766.53 107.657 766.559 107.651L771.877 106.545C771.906 106.539 771.935 106.538 771.964 106.544C771.993 106.549 772.021 106.56 772.045 106.576C772.07 106.592 772.091 106.613 772.107 106.637C772.124 106.662 772.135 106.689 772.141 106.718C772.152 106.776 772.14 106.836 772.108 106.885C772.076 106.934 772.026 106.969 771.968 106.982Z" fill="#7271B3"/>
<path d="M772.817 108.483L767.516 109.589C767.487 109.595 767.457 109.596 767.428 109.591C767.399 109.585 767.372 109.574 767.347 109.558C767.323 109.542 767.301 109.521 767.285 109.497C767.268 109.472 767.257 109.445 767.251 109.416C767.245 109.388 767.244 109.358 767.25 109.329C767.255 109.3 767.266 109.273 767.282 109.248C767.298 109.223 767.319 109.202 767.344 109.186C767.368 109.169 767.395 109.158 767.424 109.152L772.742 108.046C772.8 108.034 772.86 108.046 772.91 108.078C772.959 108.111 772.994 108.161 773.007 108.219C773.013 108.249 773.013 108.28 773.006 108.309C773 108.339 772.987 108.367 772.97 108.392C772.952 108.417 772.929 108.438 772.903 108.454C772.877 108.469 772.847 108.479 772.817 108.483Z" fill="#7271B3"/>
<path d="M774.862 120.869L769.544 121.975C769.516 121.981 769.488 121.992 769.464 122.009C769.439 122.025 769.419 122.046 769.402 122.071C769.386 122.096 769.375 122.123 769.37 122.152C769.365 122.181 769.365 122.211 769.371 122.239C769.377 122.268 769.389 122.295 769.405 122.32C769.422 122.344 769.443 122.365 769.467 122.381C769.492 122.397 769.519 122.408 769.548 122.413C769.577 122.419 769.607 122.418 769.636 122.412L774.954 121.306C774.983 121.3 775.01 121.289 775.034 121.272C775.059 121.256 775.079 121.235 775.096 121.21C775.112 121.185 775.123 121.158 775.128 121.129C775.133 121.1 775.133 121.07 775.127 121.042C775.114 120.984 775.079 120.934 775.029 120.902C774.98 120.87 774.92 120.858 774.862 120.869Z" fill="#7271B3"/>
<path d="M775.029 119.153L769.711 120.259C769.682 120.264 769.655 120.276 769.63 120.292C769.606 120.309 769.585 120.33 769.569 120.355C769.553 120.379 769.542 120.407 769.536 120.436C769.531 120.465 769.532 120.494 769.538 120.523C769.543 120.552 769.554 120.579 769.57 120.603C769.587 120.628 769.608 120.648 769.632 120.664C769.656 120.681 769.684 120.692 769.712 120.697C769.741 120.702 769.771 120.702 769.799 120.696L775.12 119.59C775.178 119.577 775.229 119.542 775.261 119.493C775.293 119.444 775.305 119.383 775.293 119.325C775.28 119.268 775.245 119.218 775.196 119.186C775.147 119.154 775.087 119.142 775.029 119.153Z" fill="#7271B3"/>
<path d="M849.25 76.3767L825.94 81.2253C823.327 81.7702 821.514 83.6692 821.89 85.467L829.213 120.605C829.589 122.406 832.012 123.427 834.626 122.889L857.935 118.04L849.25 76.3767Z" fill="#D1F7FA"/>
<path d="M766.706 125.77L768.953 136.537L826.639 124.553C827.505 124.372 828.264 123.856 828.749 123.117C829.234 122.378 829.406 121.477 829.226 120.611L827.661 113.107L766.706 125.77Z" fill="#8CD334"/>
<path d="M823.582 93.5949L821.89 85.4867C821.801 85.0578 821.628 84.6506 821.381 84.2885C821.134 83.9264 820.818 83.6165 820.452 83.3765C820.085 83.1365 819.674 82.971 819.243 82.8897C818.812 82.8084 818.37 82.8127 817.94 82.9025L760.268 94.8837L762.642 106.268L823.582 93.5949Z" fill="#8CD334"/>
<path d="M821.491 96.861L791.533 103.091L791.999 105.324L821.957 99.0939L821.491 96.861Z" fill="#7271B3"/>
<path d="M845.657 93.2812L833.38 95.8342L833.846 98.0671L846.123 95.5141L845.657 93.2812Z" fill="#7271B3"/>
<path d="M847.63 80.8973L824.854 85.6335L825.319 87.8664L848.095 83.1302L847.63 80.8973Z" fill="#7271B3"/>
<path d="M822.296 100.715L792.338 106.945L792.803 109.174L822.76 102.944L822.296 100.715Z" fill="#7271B3"/>
<path d="M823.189 104.982L793.23 111.212L793.696 113.445L823.654 107.215L823.189 104.982Z" fill="#7271B3"/>
<path d="M857.643 116.654L842.417 119.82L842.708 121.216L857.934 118.05L857.643 116.654Z" fill="#7271B3"/>
<path d="M857.315 115.093L842.09 118.259L842.314 119.335L857.54 116.169L857.315 115.093Z" fill="#7271B3"/>
<path d="M856.994 113.534L841.769 116.7L841.993 117.776L857.218 114.61L856.994 113.534Z" fill="#7271B3"/>
<path d="M854.98 106.229L839.739 109.335L839.959 110.413L855.2 107.306L854.98 106.229Z" fill="#7271B3"/>
<path d="M854.588 101.989L839.362 105.155L839.502 105.826L854.727 102.66L854.588 101.989Z" fill="#7271B3"/>
<path d="M854.39 101.035L839.165 104.201L839.305 104.872L854.53 101.706L854.39 101.035Z" fill="#7271B3"/>
<path d="M856.48 111.087L841.254 114.253L841.664 116.221L856.89 113.055L856.48 111.087Z" fill="#7271B3"/>
<path d="M856.01 108.818L840.785 111.984L841.195 113.952L856.421 110.786L856.01 108.818Z" fill="#7271B3"/>
<path d="M855.541 106.56L840.315 109.726L840.726 111.694L855.951 108.527L855.541 106.56Z" fill="#7271B3"/>
<path d="M855.071 104.298L839.846 107.464L840.256 109.432L855.481 106.266L855.071 104.298Z" fill="#7271B3"/>
<path d="M834.473 91.1238L832.075 91.6125L833.305 97.6336L835.703 97.1448L834.473 91.1238Z" fill="#7271B3"/>
<path d="M837.183 87.3068L834.788 87.8049L836.042 93.8199L838.437 93.3218L837.183 87.3068Z" fill="#7271B3"/>
<path d="M841.173 86.5058L838.778 87.0039L840.032 93.0189L842.427 92.5208L841.173 86.5058Z" fill="#7271B3"/>
<path d="M844.119 85.8796L841.724 86.3777L842.978 92.3927L845.373 91.8946L844.119 85.8796Z" fill="#7271B3"/>
<path d="M369.101 96.0615L334.225 128.129L320.058 104.715L369.101 96.0615Z" fill="#352E73"/>
<path d="M319.679 93.8525L320.058 104.715L369.1 96.0615L319.679 93.8525Z" fill="#7271B3"/>
<path d="M319.268 108.672L369.101 96.0615L319.31 125.156L319.268 108.672Z" fill="#7271B3"/>
<path d="M281.527 146.763C281.56 146.434 281.723 146.131 281.98 145.922C282.237 145.713 282.566 145.614 282.895 145.647C282.974 145.647 290.856 146.378 301.658 142.319C312.3 138.322 317.556 128.941 317.902 127.789C317.98 127.475 318.178 127.204 318.452 127.033C318.727 126.861 319.057 126.802 319.374 126.869C319.691 126.936 319.97 127.123 320.151 127.391C320.333 127.658 320.404 127.986 320.349 128.305C319.996 130.077 313.979 140.361 302.54 144.658C291.101 148.955 282.983 148.169 282.64 148.133C282.311 148.099 282.009 147.935 281.8 147.678C281.591 147.421 281.493 147.092 281.527 146.763Z" fill="#FCC13F"/>
<path d="M230.693 149.314C245.496 149.295 260.188 146.758 274.137 141.81C285.727 137.718 295.954 129.998 307.563 126.895C307.874 126.8 308.135 126.587 308.292 126.303C308.449 126.019 308.489 125.685 308.405 125.372C308.32 125.058 308.117 124.79 307.838 124.623C307.559 124.456 307.227 124.404 306.91 124.478C294.889 127.691 284.731 135.408 273.298 139.454C259.617 144.309 245.209 146.803 230.69 146.828C225.376 146.828 219.257 145.999 212.46 144.352C212.137 144.273 211.797 144.326 211.513 144.499C211.229 144.671 211.026 144.949 210.948 145.272C210.869 145.594 210.922 145.934 211.095 146.218C211.268 146.501 211.546 146.704 211.869 146.782C217.889 148.231 224.471 149.321 230.693 149.314Z" fill="#FCC13F"/>
<path d="M1083.65 473.32H6V559.983H1083.65V473.32Z" fill="#F5DAA2"/>
<path d="M1083.65 551.191H6V559.983H1083.65V551.191Z" fill="#65B3C6"/>
<path d="M1083.65 197H6V205.792H1083.65V197Z" fill="#65B3C6"/>
<path d="M477.887 471.879H465.12V484.634H477.887V471.879Z" fill="#012968"/>
<path d="M471.697 481.336H469.892V503.962H471.697V481.336Z" fill="#012968"/>
<path d="M467.273 510.244C466.883 510.245 466.497 510.169 466.137 510.02C465.777 509.871 465.449 509.653 465.174 509.378C464.898 509.102 464.68 508.775 464.531 508.415C464.382 508.056 464.306 507.67 464.306 507.281V501.753C464.306 501.364 464.382 500.978 464.531 500.618C464.68 500.258 464.898 499.932 465.174 499.656C465.449 499.381 465.777 499.163 466.137 499.014C466.497 498.865 466.883 498.789 467.273 498.789C468.059 498.789 468.814 499.102 469.37 499.657C469.927 500.213 470.239 500.967 470.239 501.753V507.293C470.236 508.077 469.922 508.828 469.366 509.381C468.81 509.934 468.057 510.244 467.273 510.244Z" fill="#012968"/>
<path d="M474.47 509.696C473.684 509.695 472.93 509.382 472.374 508.827C471.818 508.271 471.505 507.518 471.504 506.732V501.188C471.505 500.403 471.818 499.65 472.374 499.095C472.93 498.54 473.684 498.228 474.47 498.228C474.86 498.228 475.245 498.304 475.605 498.452C475.965 498.601 476.292 498.819 476.568 499.094C476.843 499.369 477.062 499.695 477.211 500.054C477.36 500.414 477.437 500.799 477.437 501.188V506.732C477.437 507.518 477.124 508.272 476.568 508.828C476.012 509.384 475.257 509.696 474.47 509.696Z" fill="#012968"/>
<path d="M553.199 484.63H565.966V471.875H553.199V484.63Z" fill="#012968"/>
<path d="M559.393 503.958H561.198V481.332H559.393V503.958Z" fill="#012968"/>
<path d="M563.979 509.886C564.369 509.886 564.755 509.81 565.115 509.661C565.475 509.512 565.802 509.294 566.078 509.019C566.353 508.743 566.572 508.416 566.721 508.057C566.87 507.697 566.946 507.311 566.946 506.922V501.382C566.946 500.596 566.633 499.842 566.077 499.286C565.52 498.73 564.766 498.418 563.979 498.418C563.192 498.418 562.438 498.73 561.881 499.286C561.325 499.842 561.012 500.596 561.012 501.382V506.922C561.012 507.311 561.088 507.697 561.237 508.057C561.386 508.416 561.605 508.743 561.88 509.019C562.156 509.294 562.483 509.512 562.843 509.661C563.203 509.81 563.589 509.886 563.979 509.886Z" fill="#012968"/>
<path d="M556.426 509.886C557.213 509.886 557.968 509.573 558.524 509.017C559.08 508.462 559.393 507.708 559.393 506.922V501.382C559.392 500.596 559.079 499.843 558.523 499.287C557.967 498.732 557.213 498.419 556.426 498.418C555.639 498.418 554.885 498.73 554.329 499.286C553.772 499.842 553.46 500.596 553.46 501.382V506.922C553.459 507.311 553.535 507.697 553.684 508.057C553.833 508.416 554.052 508.743 554.327 509.019C554.603 509.294 554.93 509.512 555.29 509.661C555.65 509.81 556.036 509.886 556.426 509.886Z" fill="#012968"/>
<path d="M368.005 447.614L495.05 456.345C495.575 456.382 496.034 456.886 496.215 457.625L501.69 480.11C502.029 481.505 501.248 482.938 500.269 482.707L367.745 451.511C366.125 451.111 366.365 447.503 368.005 447.614Z" fill="#65B3C6"/>
<path d="M662.494 452.527L547.501 459.367L539.755 482.273L662.817 456.634C664.791 456.226 664.49 452.407 662.494 452.527Z" fill="#65B3C6"/>
<path d="M469.099 481.473C469.261 484.57 468.479 487.643 466.857 490.287C465.235 492.931 462.849 495.022 460.013 496.283C457.177 497.545 454.025 497.917 450.973 497.352C447.921 496.787 445.112 495.31 442.917 493.117C440.722 490.924 439.245 488.118 438.679 485.068C438.113 482.019 438.486 478.87 439.748 476.036C441.011 473.203 443.103 470.819 445.75 469.198C448.396 467.577 451.472 466.797 454.572 466.958C458.361 467.156 461.942 468.749 464.624 471.429C467.307 474.109 468.901 477.687 469.099 481.473Z" fill="#FFF8F3"/>
<path d="M453.775 496.193C451.02 496.192 448.327 495.375 446.036 493.845C443.745 492.315 441.96 490.141 440.906 487.597C439.853 485.054 439.577 482.255 440.115 479.555C440.653 476.855 441.981 474.376 443.929 472.429C445.878 470.483 448.36 469.158 451.063 468.621C453.765 468.084 456.566 468.36 459.112 469.414C461.657 470.467 463.833 472.252 465.364 474.541C466.894 476.829 467.711 479.521 467.711 482.273C467.707 485.964 466.237 489.503 463.624 492.113C461.012 494.722 457.469 496.19 453.775 496.193Z" fill="#016589"/>
<path d="M593.93 484.531C594.092 487.628 593.31 490.702 591.688 493.346C590.066 495.99 587.679 498.081 584.843 499.342C582.008 500.603 578.856 500.976 575.804 500.41C572.752 499.845 569.943 498.369 567.748 496.176C565.553 493.983 564.075 491.176 563.509 488.127C562.943 485.078 563.316 481.928 564.579 479.095C565.841 476.262 567.934 473.877 570.58 472.257C573.227 470.636 576.303 469.855 579.403 470.017C583.192 470.214 586.773 471.806 589.456 474.487C592.139 477.167 593.732 480.746 593.93 484.531Z" fill="#FFF8F3"/>
<path d="M578.6 499.248C575.845 499.247 573.152 498.43 570.861 496.9C568.571 495.37 566.786 493.196 565.732 490.652C564.678 488.108 564.403 485.31 564.941 482.61C565.479 479.91 566.806 477.43 568.755 475.484C570.703 473.537 573.186 472.212 575.888 471.675C578.59 471.139 581.392 471.415 583.937 472.468C586.483 473.522 588.658 475.306 590.189 477.595C591.72 479.884 592.537 482.575 592.537 485.328C592.532 489.019 591.062 492.558 588.45 495.167C585.837 497.777 582.295 499.245 578.6 499.248Z" fill="#016589"/>
<path d="M472.198 433.187H561.368C563.591 433.187 563.987 436.357 561.831 436.902L517.246 448.147C516.942 448.225 516.624 448.225 516.32 448.147L471.735 436.902C469.583 436.357 469.975 433.187 472.198 433.187Z" fill="#FFF8F3"/>
<path d="M506.519 367.638C506.519 367.638 513.093 372.278 515.031 384.65C516.968 397.021 515.031 426.392 515.031 426.392L529.991 432.997L503.313 434.351L506.519 367.638Z" fill="#FFF8F3"/>
<path d="M550.237 459.235C550.237 474.822 535.945 491.318 518.32 491.318C500.694 491.318 486.398 474.806 486.398 459.235C486.398 443.664 500.69 431.015 518.32 431.015C535.949 431.015 550.237 443.668 550.237 459.235Z" fill="#FFF8F3"/>
<path d="M506.02 447.305C506.023 446.894 505.939 446.487 505.772 446.112C505.605 445.736 505.36 445.4 505.053 445.127C504.746 444.853 504.384 444.648 503.992 444.526C503.599 444.403 503.185 444.365 502.777 444.415C500.645 444.671 498.52 444.981 496.402 445.344C492.927 445.938 490.712 449.059 491.444 452.139C491.815 453.617 492.735 454.898 494.017 455.725C495.299 456.551 496.847 456.86 498.348 456.589C500.064 456.297 501.781 456.042 503.5 455.825C504.203 455.737 504.85 455.394 505.316 454.861C505.783 454.329 506.038 453.643 506.033 452.935L506.02 447.305Z" fill="#65B3C6"/>
<path d="M527.298 443.854C521.728 443.444 516.137 443.401 510.561 443.726C509.821 443.766 509.125 444.088 508.616 444.626C508.107 445.163 507.824 445.875 507.825 446.615V452.229C507.825 452.626 507.905 453.019 508.063 453.383C508.221 453.747 508.451 454.075 508.741 454.346C509.031 454.617 509.374 454.826 509.748 454.959C510.122 455.092 510.52 455.146 510.916 455.119C516.226 454.795 521.552 454.836 526.856 455.243C527.256 455.277 527.658 455.227 528.038 455.097C528.417 454.967 528.766 454.76 529.061 454.488C529.355 454.216 529.591 453.886 529.751 453.518C529.911 453.151 529.993 452.754 529.992 452.353V446.735C529.992 446.003 529.713 445.299 529.213 444.764C528.713 444.229 528.029 443.904 527.298 443.854Z" fill="#65B3C6"/>
<path d="M539.544 445.348C538.059 445.092 536.573 444.864 535.086 444.663C534.673 444.603 534.252 444.634 533.852 444.752C533.452 444.87 533.082 445.074 532.768 445.348C532.454 445.623 532.203 445.962 532.033 446.342C531.862 446.723 531.776 447.136 531.78 447.553V453.212C531.778 453.909 532.028 454.582 532.483 455.109C532.939 455.637 533.57 455.982 534.259 456.081C535.361 456.238 536.463 456.411 537.565 456.601C539.066 456.872 540.615 456.564 541.897 455.738C543.18 454.911 544.1 453.63 544.473 452.151C545.233 449.076 543.019 445.943 539.544 445.348Z" fill="#65B3C6"/>
<path d="M549.878 463.594C543.907 474.698 532.438 475.487 521.609 475.487C510.78 475.487 508.838 464.081 500.327 460.213C495.621 458.075 490.262 458.892 486.415 460.052C486.89 475.396 500.992 491.33 518.32 491.33C534.314 491.33 547.56 477.745 549.878 463.585V463.594Z" fill="#016589"/>
<path d="M423.167 197.093H411.004V559.698H423.167V197.093Z" fill="#65B3C6"/>
<path d="M423.167 197.093H417.085V559.698H423.167V197.093Z" fill="#FFF8F3"/>
<path d="M18.0818 197H12V559.605H18.0818V197Z" fill="#FFF8F3"/>
<path d="M757.445 197.093H745.281V559.698H757.445V197.093Z" fill="#65B3C6"/>
<path d="M1083.25 197H1071.09V559.605H1083.25V197Z" fill="#65B3C6"/>
<path d="M12.1636 197H0V559.605H12.1636V197Z" fill="#65B3C6"/>
<path d="M757.445 197.093H751.363V559.698H757.445V197.093Z" fill="#FFF8F3"/>
<path d="M1083.25 197H1077.17V559.605H1083.25V197Z" fill="#FFF8F3"/>
<path d="M626 202.443H622.31V251.261H626V202.443Z" fill="#012968"/>
<path d="M850.862 202.443H847.172V251.261H850.862V202.443Z" fill="#012968"/>
<path d="M872.586 230.34H595.136C594.255 230.34 593.541 231.053 593.541 231.933V392.526C593.541 393.406 594.255 394.119 595.136 394.119H872.586C873.467 394.119 874.181 393.406 874.181 392.526V231.933C874.181 231.053 873.467 230.34 872.586 230.34Z" fill="#012968"/>
<path d="M872.586 230.34H595.136C594.255 230.34 593.541 231.053 593.541 231.933V263.467C593.541 264.347 594.255 265.061 595.136 265.061H872.586C873.467 265.061 874.181 264.347 874.181 263.467V231.933C874.181 231.053 873.467 230.34 872.586 230.34Z" fill="#F79D31"/>
<path d="M641.865 278.411H617.022C616.141 278.411 615.427 279.124 615.427 280.004V282.712C615.427 283.592 616.141 284.306 617.022 284.306H641.865C642.746 284.306 643.46 283.592 643.46 282.712V280.004C643.46 279.124 642.746 278.411 641.865 278.411Z" fill="#65B3C6"/>
<path d="M685.871 278.411H661.032C660.151 278.411 659.437 279.124 659.437 280.004V282.712C659.437 283.592 660.151 284.306 661.032 284.306H685.871C686.752 284.306 687.466 283.592 687.466 282.712V280.004C687.466 279.124 686.752 278.411 685.871 278.411Z" fill="#65B3C6"/>
<path d="M744.153 278.411H719.309C718.429 278.411 717.715 279.124 717.715 280.004V282.712C717.715 283.592 718.429 284.306 719.309 284.306H744.153C745.034 284.306 745.748 283.592 745.748 282.712V280.004C745.748 279.124 745.034 278.411 744.153 278.411Z" fill="#65B3C6"/>
<path d="M801.199 278.411H776.355C775.474 278.411 774.76 279.124 774.76 280.004V282.712C774.76 283.592 775.474 284.306 776.355 284.306H801.199C802.08 284.306 802.794 283.592 802.794 282.712V280.004C802.794 279.124 802.08 278.411 801.199 278.411Z" fill="#65B3C6"/>
<path d="M853.572 278.411H828.728C827.848 278.411 827.134 279.124 827.134 280.004V282.712C827.134 283.592 827.848 284.306 828.728 284.306H853.572C854.453 284.306 855.167 283.592 855.167 282.712V280.004C855.167 279.124 854.453 278.411 853.572 278.411Z" fill="#65B3C6"/>
<path d="M648.252 314.766H618.74C617.859 314.766 617.145 315.48 617.145 316.36V316.368C617.145 317.248 617.859 317.961 618.74 317.961H648.252C649.133 317.961 649.847 317.248 649.847 316.368V316.36C649.847 315.48 649.133 314.766 648.252 314.766Z" fill="#FFE1C8"/>
<path d="M648.252 320.418H618.74C617.859 320.418 617.145 321.131 617.145 322.011V322.019C617.145 322.899 617.859 323.613 618.74 323.613H648.252C649.133 323.613 649.847 322.899 649.847 322.019V322.011C649.847 321.131 649.133 320.418 648.252 320.418Z" fill="#FFE1C8"/>
<path d="M643.092 327.542H623.905C623.024 327.542 622.31 328.256 622.31 329.136V329.144C622.31 330.024 623.024 330.738 623.905 330.738H643.092C643.973 330.738 644.687 330.024 644.687 329.144V329.136C644.687 328.256 643.973 327.542 643.092 327.542Z" fill="#FFE1C8"/>
<path d="M648.252 335.526H618.74C617.859 335.526 617.145 336.24 617.145 337.12V337.128C617.145 338.008 617.859 338.721 618.74 338.721H648.252C649.133 338.721 649.847 338.008 649.847 337.128V337.12C649.847 336.24 649.133 335.526 648.252 335.526Z" fill="#FFE1C8"/>
<path d="M648.252 341.177H618.74C617.859 341.177 617.145 341.891 617.145 342.771V342.779C617.145 343.659 617.859 344.373 618.74 344.373H648.252C649.133 344.373 649.847 343.659 649.847 342.779V342.771C649.847 341.891 649.133 341.177 648.252 341.177Z" fill="#FFE1C8"/>
<path d="M643.092 348.302H623.905C623.024 348.302 622.31 349.016 622.31 349.896V349.904C622.31 350.784 623.024 351.497 623.905 351.497H643.092C643.973 351.497 644.687 350.784 644.687 349.904V349.896C644.687 349.016 643.973 348.302 643.092 348.302Z" fill="#FFE1C8"/>
<path d="M648.252 355.427H618.74C617.859 355.427 617.145 356.141 617.145 357.021V357.029C617.145 357.909 617.859 358.623 618.74 358.623H648.252C649.133 358.623 649.847 357.909 649.847 357.029V357.021C649.847 356.141 649.133 355.427 648.252 355.427Z" fill="#FFE1C8"/>
<path d="M648.252 361.079H618.74C617.859 361.079 617.145 361.792 617.145 362.672V362.68C617.145 363.56 617.859 364.274 618.74 364.274H648.252C649.133 364.274 649.847 363.56 649.847 362.68V362.672C649.847 361.792 649.133 361.079 648.252 361.079Z" fill="#FFE1C8"/>
<path d="M643.092 368.2H623.905C623.024 368.2 622.31 368.913 622.31 369.793V369.801C622.31 370.681 623.024 371.395 623.905 371.395H643.092C643.973 371.395 644.687 370.681 644.687 369.801V369.793C644.687 368.913 643.973 368.2 643.092 368.2Z" fill="#FFE1C8"/>
<path d="M682.066 315.382H670.01C669.129 315.382 668.415 316.095 668.415 316.975V317.351C668.415 318.231 669.129 318.944 670.01 318.944H682.066C682.947 318.944 683.661 318.231 683.661 317.351V316.975C683.661 316.095 682.947 315.382 682.066 315.382Z" fill="#F79D31"/>
<path d="M683.173 333.437H669.026C668.146 333.437 667.432 334.151 667.432 335.031V335.53C667.432 336.41 668.146 337.124 669.026 337.124H683.173C684.054 337.124 684.768 336.41 684.768 335.53V335.031C684.768 334.151 684.054 333.437 683.173 333.437Z" fill="#F79D31"/>
<path d="M683.173 339.336H669.026C668.146 339.336 667.432 340.05 667.432 340.93V341.429C667.432 342.309 668.146 343.023 669.026 343.023H683.173C684.054 343.023 684.768 342.309 684.768 341.429V340.93C684.768 340.05 684.054 339.336 683.173 339.336Z" fill="#F79D31"/>
<path d="M682.004 352.971H669.948C669.067 352.971 668.353 353.685 668.353 354.565V354.94C668.353 355.82 669.067 356.534 669.948 356.534H682.004C682.885 356.534 683.599 355.82 683.599 354.94V354.565C683.599 353.685 682.885 352.971 682.004 352.971Z" fill="#F79D31"/>
<path d="M683.724 359.233H669.577C668.696 359.233 667.982 359.947 667.982 360.827V361.326C667.982 362.206 668.696 362.92 669.577 362.92H683.724C684.604 362.92 685.318 362.206 685.318 361.326V360.827C685.318 359.947 684.604 359.233 683.724 359.233Z" fill="#F79D31"/>
<path d="M748.822 314.766H719.309C718.429 314.766 717.715 315.48 717.715 316.36V316.368C717.715 317.248 718.429 317.961 719.309 317.961H748.822C749.703 317.961 750.417 317.248 750.417 316.368V316.36C750.417 315.48 749.703 314.766 748.822 314.766Z" fill="#FFE1C8"/>
<path d="M748.822 320.418H719.309C718.429 320.418 717.715 321.131 717.715 322.011V322.019C717.715 322.899 718.429 323.613 719.309 323.613H748.822C749.703 323.613 750.417 322.899 750.417 322.019V322.011C750.417 321.131 749.703 320.418 748.822 320.418Z" fill="#FFE1C8"/>
<path d="M743.662 327.542H724.474C723.593 327.542 722.879 328.256 722.879 329.136V329.144C722.879 330.024 723.593 330.738 724.474 330.738H743.662C744.543 330.738 745.257 330.024 745.257 329.144V329.136C745.257 328.256 744.543 327.542 743.662 327.542Z" fill="#FFE1C8"/>
<path d="M748.822 335.526H719.309C718.429 335.526 717.715 336.24 717.715 337.12V337.128C717.715 338.008 718.429 338.721 719.309 338.721H748.822C749.703 338.721 750.417 338.008 750.417 337.128V337.12C750.417 336.24 749.703 335.526 748.822 335.526Z" fill="#FFE1C8"/>
<path d="M748.822 341.177H719.309C718.429 341.177 717.715 341.891 717.715 342.771V342.779C717.715 343.659 718.429 344.373 719.309 344.373H748.822C749.703 344.373 750.417 343.659 750.417 342.779V342.771C750.417 341.891 749.703 341.177 748.822 341.177Z" fill="#FFE1C8"/>
<path d="M743.662 348.302H724.474C723.593 348.302 722.879 349.016 722.879 349.896V349.904C722.879 350.784 723.593 351.497 724.474 351.497H743.662C744.543 351.497 745.257 350.784 745.257 349.904V349.896C745.257 349.016 744.543 348.302 743.662 348.302Z" fill="#FFE1C8"/>
<path d="M748.822 355.427H719.309C718.429 355.427 717.715 356.141 717.715 357.021V357.029C717.715 357.909 718.429 358.623 719.309 358.623H748.822C749.703 358.623 750.417 357.909 750.417 357.029V357.021C750.417 356.141 749.703 355.427 748.822 355.427Z" fill="#FFE1C8"/>
<path d="M748.822 361.079H719.309C718.429 361.079 717.715 361.792 717.715 362.672V362.68C717.715 363.56 718.429 364.274 719.309 364.274H748.822C749.703 364.274 750.417 363.56 750.417 362.68V362.672C750.417 361.792 749.703 361.079 748.822 361.079Z" fill="#FFE1C8"/>
<path d="M743.662 368.2H724.474C723.593 368.2 722.879 368.913 722.879 369.793V369.801C722.879 370.681 723.593 371.395 724.474 371.395H743.662C744.543 371.395 745.257 370.681 745.257 369.801V369.793C745.257 368.913 744.543 368.2 743.662 368.2Z" fill="#FFE1C8"/>
<path d="M782.631 315.382H770.575C769.694 315.382 768.98 316.095 768.98 316.975V317.351C768.98 318.231 769.694 318.944 770.575 318.944H782.631C783.512 318.944 784.226 318.231 784.226 317.351V316.975C784.226 316.095 783.512 315.382 782.631 315.382Z" fill="#F79D31"/>
<path d="M783.739 333.437H769.592C768.711 333.437 767.997 334.151 767.997 335.031V335.53C767.997 336.41 768.711 337.124 769.592 337.124H783.739C784.62 337.124 785.334 336.41 785.334 335.53V335.031C785.334 334.151 784.62 333.437 783.739 333.437Z" fill="#F79D31"/>
<path d="M783.739 339.336H769.592C768.711 339.336 767.997 340.05 767.997 340.93V341.429C767.997 342.309 768.711 343.023 769.592 343.023H783.739C784.62 343.023 785.334 342.309 785.334 341.429V340.93C785.334 340.05 784.62 339.336 783.739 339.336Z" fill="#F79D31"/>
<path d="M782.569 352.971H770.513C769.632 352.971 768.918 353.685 768.918 354.565V354.94C768.918 355.82 769.632 356.534 770.513 356.534H782.569C783.45 356.534 784.164 355.82 784.164 354.94V354.565C784.164 353.685 783.45 352.971 782.569 352.971Z" fill="#F79D31"/>
<path d="M784.292 359.233H770.145C769.264 359.233 768.55 359.947 768.55 360.827V361.326C768.55 362.206 769.264 362.92 770.145 362.92H784.292C785.173 362.92 785.887 362.206 785.887 361.326V360.827C785.887 359.947 785.173 359.233 784.292 359.233Z" fill="#F79D31"/>
<path d="M842.999 313.908H826.886C826.005 313.908 825.291 314.621 825.291 315.501V315.571C825.291 316.451 826.005 317.165 826.886 317.165H842.999C843.88 317.165 844.594 316.451 844.594 315.571V315.501C844.594 314.621 843.88 313.908 842.999 313.908Z" fill="#FFE1C8"/>
<path d="M858.857 313.908H848.767C847.886 313.908 847.172 314.621 847.172 315.501V315.571C847.172 316.451 847.886 317.165 848.767 317.165H858.857C859.737 317.165 860.451 316.451 860.451 315.571V315.501C860.451 314.621 859.737 313.908 858.857 313.908Z" fill="#FFE1C8"/>
<path d="M842.999 320.389H826.886C826.005 320.389 825.291 321.102 825.291 321.982V322.053C825.291 322.933 826.005 323.646 826.886 323.646H842.999C843.88 323.646 844.594 322.933 844.594 322.053V321.982C844.594 321.102 843.88 320.389 842.999 320.389Z" fill="#FFE1C8"/>
<path d="M858.857 320.389H848.767C847.886 320.389 847.172 321.102 847.172 321.982V322.053C847.172 322.933 847.886 323.646 848.767 323.646H858.857C859.737 323.646 860.451 322.933 860.451 322.053V321.982C860.451 321.102 859.737 320.389 858.857 320.389Z" fill="#FFE1C8"/>
<path d="M842.999 326.866H826.886C826.005 326.866 825.291 327.579 825.291 328.459V328.529C825.291 329.409 826.005 330.123 826.886 330.123H842.999C843.88 330.123 844.594 329.409 844.594 328.529V328.459C844.594 327.579 843.88 326.866 842.999 326.866Z" fill="#FFE1C8"/>
<path d="M858.857 326.866H848.767C847.886 326.866 847.172 327.579 847.172 328.459V328.529C847.172 329.409 847.886 330.123 848.767 330.123H858.857C859.737 330.123 860.451 329.409 860.451 328.529V328.459C860.451 327.579 859.737 326.866 858.857 326.866Z" fill="#FFE1C8"/>
<path d="M842.999 333.347H826.886C826.005 333.347 825.291 334.06 825.291 334.94V335.01C825.291 335.89 826.005 336.604 826.886 336.604H842.999C843.88 336.604 844.594 335.89 844.594 335.01V334.94C844.594 334.06 843.88 333.347 842.999 333.347Z" fill="#FFE1C8"/>
<path d="M858.857 333.347H848.767C847.886 333.347 847.172 334.06 847.172 334.94V335.01C847.172 335.89 847.886 336.604 848.767 336.604H858.857C859.737 336.604 860.451 335.89 860.451 335.01V334.94C860.451 334.06 859.737 333.347 858.857 333.347Z" fill="#FFE1C8"/>
<path d="M842.999 339.828H826.886C826.005 339.828 825.291 340.541 825.291 341.421V341.491C825.291 342.371 826.005 343.085 826.886 343.085H842.999C843.88 343.085 844.594 342.371 844.594 341.491V341.421C844.594 340.541 843.88 339.828 842.999 339.828Z" fill="#FFE1C8"/>
<path d="M858.857 339.828H848.767C847.886 339.828 847.172 340.541 847.172 341.421V341.491C847.172 342.371 847.886 343.085 848.767 343.085H858.857C859.737 343.085 860.451 342.371 860.451 341.491V341.421C860.451 340.541 859.737 339.828 858.857 339.828Z" fill="#FFE1C8"/>
<path d="M842.999 346.305H826.886C826.005 346.305 825.291 347.018 825.291 347.898V347.968C825.291 348.848 826.005 349.562 826.886 349.562H842.999C843.88 349.562 844.594 348.848 844.594 347.968V347.898C844.594 347.018 843.88 346.305 842.999 346.305Z" fill="#FFE1C8"/>
<path d="M858.857 346.305H848.767C847.886 346.305 847.172 347.018 847.172 347.898V347.968C847.172 348.848 847.886 349.562 848.767 349.562H858.857C859.737 349.562 860.451 348.848 860.451 347.968V347.898C860.451 347.018 859.737 346.305 858.857 346.305Z" fill="#FFE1C8"/>
<path d="M842.999 352.785H826.886C826.005 352.785 825.291 353.499 825.291 354.379V354.449C825.291 355.329 826.005 356.042 826.886 356.042H842.999C843.88 356.042 844.594 355.329 844.594 354.449V354.379C844.594 353.499 843.88 352.785 842.999 352.785Z" fill="#FFE1C8"/>
<path d="M858.857 352.785H848.767C847.886 352.785 847.172 353.499 847.172 354.379V354.449C847.172 355.329 847.886 356.042 848.767 356.042H858.857C859.737 356.042 860.451 355.329 860.451 354.449V354.379C860.451 353.499 859.737 352.785 858.857 352.785Z" fill="#FFE1C8"/>
<path d="M842.999 359.267H826.886C826.005 359.267 825.291 359.98 825.291 360.86V360.93C825.291 361.81 826.005 362.524 826.886 362.524H842.999C843.88 362.524 844.594 361.81 844.594 360.93V360.86C844.594 359.98 843.88 359.267 842.999 359.267Z" fill="#FFE1C8"/>
<path d="M858.857 359.267H848.767C847.886 359.267 847.172 359.98 847.172 360.86V360.93C847.172 361.81 847.886 362.524 848.767 362.524H858.857C859.737 362.524 860.451 361.81 860.451 360.93V360.86C860.451 359.98 859.737 359.267 858.857 359.267Z" fill="#FFE1C8"/>
<path d="M842.999 365.743H826.886C826.005 365.743 825.291 366.457 825.291 367.337V367.407C825.291 368.287 826.005 369 826.886 369H842.999C843.88 369 844.594 368.287 844.594 367.407V367.337C844.594 366.457 843.88 365.743 842.999 365.743Z" fill="#FFE1C8"/>
<path d="M858.857 365.743H848.767C847.886 365.743 847.172 366.457 847.172 367.337V367.407C847.172 368.287 847.886 369 848.767 369H858.857C859.737 369 860.451 368.287 860.451 367.407V367.337C860.451 366.457 859.737 365.743 858.857 365.743Z" fill="#FFE1C8"/>
<path d="M842.999 372.224H826.886C826.005 372.224 825.291 372.938 825.291 373.818V373.888C825.291 374.768 826.005 375.481 826.886 375.481H842.999C843.88 375.481 844.594 374.768 844.594 373.888V373.818C844.594 372.938 843.88 372.224 842.999 372.224Z" fill="#FFE1C8"/>
<path d="M858.857 372.224H848.767C847.886 372.224 847.172 372.938 847.172 373.818V373.888C847.172 374.768 847.886 375.481 848.767 375.481H858.857C859.737 375.481 860.451 374.768 860.451 373.888V373.818C860.451 372.938 859.737 372.224 858.857 372.224Z" fill="#FFE1C8"/>
<path d="M842.999 378.705H826.886C826.005 378.705 825.291 379.419 825.291 380.299V380.369C825.291 381.249 826.005 381.962 826.886 381.962H842.999C843.88 381.962 844.594 381.249 844.594 380.369V380.299C844.594 379.419 843.88 378.705 842.999 378.705Z" fill="#FFE1C8"/>
<path d="M858.857 378.705H848.767C847.886 378.705 847.172 379.419 847.172 380.299V380.369C847.172 381.249 847.886 381.962 848.767 381.962H858.857C859.737 381.962 860.451 381.249 860.451 380.369V380.299C860.451 379.419 859.737 378.705 858.857 378.705Z" fill="#FFE1C8"/>
<path d="M854.618 236.619H728.713C725.491 236.619 722.879 239.229 722.879 242.448V253.106C722.879 256.325 725.491 258.935 728.713 258.935H854.618C857.84 258.935 860.452 256.325 860.452 253.106V242.448C860.452 239.229 857.84 236.619 854.618 236.619Z" fill="#F2B370"/>
<path d="M154.603 677.262C154.603 678.813 154.143 680.33 153.28 681.619C152.417 682.909 151.191 683.914 149.757 684.508C148.323 685.102 146.744 685.257 145.221 684.954C143.699 684.652 142.3 683.905 141.202 682.808C140.104 681.711 139.356 680.313 139.053 678.792C138.751 677.271 138.906 675.694 139.5 674.26C140.094 672.827 141.101 671.602 142.392 670.741C143.682 669.879 145.2 669.419 146.753 669.419C148.835 669.419 150.832 670.245 152.304 671.716C153.776 673.187 154.603 675.182 154.603 677.262Z" fill="#FFF2E2"/>
<path d="M157.698 677.262C157.698 678.813 157.237 680.33 156.375 681.619C155.512 682.909 154.286 683.914 152.852 684.508C151.417 685.102 149.839 685.257 148.316 684.954C146.793 684.652 145.394 683.905 144.297 682.808C143.199 681.711 142.451 680.313 142.148 678.792C141.845 677.271 142.001 675.694 142.595 674.26C143.189 672.827 144.195 671.602 145.486 670.741C146.777 669.879 148.295 669.419 149.847 669.419C151.929 669.419 153.926 670.245 155.398 671.716C156.871 673.187 157.698 675.182 157.698 677.262Z" fill="#FFF2E2"/>
<path d="M206.889 699.499C207.585 695.217 204.674 691.181 200.388 690.486C196.101 689.791 192.063 692.699 191.367 696.982C190.671 701.264 193.582 705.299 197.868 705.994C202.154 706.69 206.193 703.782 206.889 699.499Z" fill="#FFF2E2"/>
<path d="M209.988 699.498C210.684 695.215 207.773 691.18 203.487 690.485C199.2 689.79 195.162 692.698 194.466 696.98C193.77 701.263 196.681 705.298 200.967 705.993C205.253 706.688 209.292 703.78 209.988 699.498Z" fill="#FFF2E2"/>
<path d="M140.563 668.746L149.265 676.829C150.145 677.647 151.163 678.302 152.273 678.765L210.86 703.12L221.747 695.297L140.563 668.746Z" fill="#33353B"/>
<path d="M263.919 580.98L261.13 579.056C273.976 560.472 298.803 523.889 300.831 518.366C302.121 514.873 302.129 511.955 300.856 509.697C298.815 506.073 294.06 505.102 294.014 505.094L293.832 505.049L280.842 501.028C265.944 495.096 259.573 506.783 259.308 507.282L259.217 507.431L224.449 559.914L221.623 558.044L256.329 505.618C257.851 503.008 259.944 500.775 262.452 499.088C266.291 496.504 272.781 494.2 282.012 497.85L294.75 501.775C295.613 501.961 301.129 503.299 303.794 507.996C305.591 511.171 305.661 515.047 304.009 519.53C301.327 526.845 265.444 578.771 263.919 580.98Z" fill="#33353B"/>
<path d="M259.989 567.779L288.774 587.527C288.774 587.527 296.356 595.18 287.655 610.475C279.995 623.928 238.988 700.276 238.988 700.276C238.988 700.276 230.448 716.16 197.204 696.28L259.989 567.779Z" fill="#33353B"/>
<path d="M268.096 597.067L221.569 682.31C218.976 687.064 214.708 690.687 209.593 692.474C204.478 694.262 198.881 694.088 193.887 691.986L164.614 679.685L163.887 679.384L145.555 671.677C143.761 670.926 142.076 669.941 140.543 668.746C140.192 668.473 139.857 668.193 139.527 667.899C135.652 664.475 133.12 659.787 132.381 654.671C131.643 649.556 132.746 644.344 135.494 639.965L185.165 560.612C187.743 556.495 191.62 553.353 196.184 551.682C200.748 550.012 205.738 549.907 210.368 551.386L215.739 553.099L217.016 553.512L218.09 553.859L236.034 559.58L238.236 560.282L255.552 565.809C258.173 566.641 260.613 567.959 262.745 569.694L263.159 570.032L263.985 570.771C267.472 574.09 269.766 578.467 270.509 583.222C271.252 587.976 270.404 592.843 268.096 597.067Z" fill="#44474F"/>
<path d="M213.847 690.447C210.885 692.272 207.53 693.363 204.062 693.631C200.593 693.899 197.11 693.335 193.903 691.987L164.63 679.685L163.903 679.384L145.571 671.677C143.777 670.927 142.092 669.941 140.559 668.746C140.208 668.473 139.873 668.193 139.543 667.9C134.109 663.099 130.093 652.32 133.469 644.155C133.469 644.155 195.572 669.749 207.628 677.262C213.847 681.138 213.847 686.641 213.847 690.447Z" fill="#44474F"/>
<path d="M218.091 553.867C217.929 553.867 200.857 556.344 195.978 562.825C190.958 569.487 141.572 651.024 141.076 651.846C139.916 654.632 139.346 657.628 139.4 660.645C139.455 663.662 140.134 666.635 141.394 669.377L140.568 668.758C140.217 668.486 139.882 668.205 139.552 667.912C135.792 658.636 139.87 651.54 140.056 651.23C142.093 647.862 189.974 568.819 195.007 562.106C199.432 556.228 211.781 553.764 215.723 553.112L217 553.524L218.091 553.867Z" fill="#33353B"/>
<path d="M238.237 560.278C235.725 560.761 225.871 563.23 219.822 572.976C212.724 584.415 167.424 670.096 166.965 670.958L166.932 671.02L166.887 671.07C166.854 671.111 163.763 675.458 165.362 679.995L164.627 679.685L163.9 679.384C162.532 674.67 165.503 670.868 165.936 670.339C167.337 667.693 211.757 583.684 218.797 572.348C224.011 563.948 231.94 560.732 236.03 559.576L238.237 560.278Z" fill="#33353B"/>
<path d="M263.965 570.792C261.484 571.128 259.068 571.838 256.8 572.897C252.037 575.178 248.039 578.79 245.289 583.296C238.195 594.722 194.528 680.758 194.09 681.625L194.057 681.691L194.007 681.745C193.974 681.786 191.4 687.09 192.999 691.627L191.152 690.851C190.144 686.896 192.59 681.58 193.053 681.022C194.449 678.273 237.233 594.004 244.285 582.664C250.896 572.005 260.725 570.016 262.762 569.71L263.175 570.049L263.965 570.792Z" fill="#33353B"/>
<path d="M279.119 676.758C279.119 676.758 272.876 682.537 274.095 686.665C275.314 690.793 280.949 693.518 281.71 698.538C282.47 703.557 285.519 706.298 288.258 706.298H301.331C301.331 706.298 303.351 702.765 298.476 701.7C293.601 700.635 291.762 694.731 292.068 689.254C292.373 683.776 291.609 676.457 291.609 676.457L281.251 674.021L279.119 676.758Z" fill="#33353B"/>
<path d="M392.352 706.274H357.646C357.412 706.234 357.185 706.166 356.968 706.071C354.654 704.915 355.377 696.073 355.658 693.332C355.712 692.824 355.749 692.507 355.749 692.507C355.749 692.507 367.938 682.768 369.611 690.228C369.665 690.459 369.727 690.69 369.793 690.913C371.9 697.89 381.361 701.064 386.828 701.947C390.984 702.637 392.066 705.06 392.352 706.274Z" fill="#33353B"/>
<path d="M385.369 506.601C385.369 506.601 383.518 529.672 381.341 557.409C378.387 595.081 374.83 641.356 374.478 650.12C373.871 665.344 371.429 689.695 371.429 689.695C371.429 689.695 365.645 695.474 354.076 693.039C354.076 693.039 343.747 658.281 340.809 621.504C340.765 620.902 340.72 620.295 340.673 619.684C337.93 582.247 333.649 503.406 333.649 503.406L385.369 506.601Z" fill="#F7B46B"/>
<path d="M385.37 506.601C385.37 506.601 383.519 529.672 381.341 557.409L340.797 621.504C340.753 620.902 340.708 620.295 340.661 619.684C337.917 582.247 333.637 503.406 333.637 503.406L385.37 506.601Z" fill="#F79D31"/>
<path d="M376.915 509.342C376.915 509.342 343.556 592.897 321.621 632.163C299.686 671.429 292.828 682.389 292.828 682.389C292.828 682.389 280.263 677.365 279.119 673.943C279.119 673.943 287.506 598.136 302.198 579.659C310.499 569.215 320.25 537.879 320.704 526.919C321.158 515.959 323.675 494.275 323.675 494.275L376.915 509.342Z" fill="#F4B269"/>
<path d="M410.651 486.275L412.56 490.072C412.56 490.072 422.257 491.426 419.583 501.528C419.583 501.528 418.146 505.68 415.472 504.368C412.799 503.055 414.113 503.162 410.283 501.391C406.453 499.621 404.23 496.223 405.09 493.107L404.474 489.804L410.651 486.275Z" fill="#C97E67"/>
<path d="M359.807 380.366C361.29 371.619 361.335 366.43 361.335 366.43L344.395 352.808C345.023 371.545 333.004 380.556 333.004 380.556C333.004 380.556 355.563 391.652 368.599 387.541C366.131 384.633 363.151 382.201 359.807 380.366Z" fill="#C97E67"/>
<path d="M365.322 366.12C365.322 366.12 343.788 369.695 341.772 356.263C339.755 342.83 335.611 334.248 349.271 331.395C362.93 328.543 366.384 333.27 368.148 337.587C369.912 341.905 370.871 364.845 365.322 366.12Z" fill="#C97E67"/>
<path d="M341.908 357.192C341.908 357.192 342.346 339.21 361.98 336.32C375.42 334.339 367.281 323.111 365.744 321.344C365.744 321.344 355.473 323.305 344.957 325.608C322.874 330.438 339.578 354.517 341.908 357.192Z" fill="#33353B"/>
<path d="M408.395 491.555C410.32 489.489 412.002 487.209 413.407 484.76C413.407 484.76 388.943 454.39 386.964 451.245C384.985 448.099 370.115 397.58 370.115 397.58L332.533 389.985C332.533 389.985 363.897 454.634 369.09 462.514C377.676 475.538 403.362 494.923 403.362 494.923C405.245 494.141 406.955 492.996 408.395 491.555Z" fill="#FFF2E2"/>
<path d="M386.807 508.525C386.427 508.857 385.94 509.042 385.435 509.045C380.539 508.979 366.264 511.695 354.187 510.457C344.003 509.478 334.992 506.465 325.311 502.131C324.026 501.557 321.068 499.98 321.134 498.543C321.179 496.971 321.332 494.692 321.547 491.823C322.233 481.841 323.427 464.673 322.262 444.862C322.051 441.176 321.944 437.519 321.927 433.915C321.828 407.083 327.063 383.326 337.772 375.338C338.685 374.682 344.383 377.555 349.548 380.098C354.315 382.447 357.646 382.393 362.149 381.481L368.086 385.774C373.569 390.86 379.577 397.774 382.188 408.276C384.406 417.209 385.712 433.321 386.431 450.018C386.757 457.585 387.018 465.218 387.084 472.458V472.714C387.15 473.433 387.15 474.217 387.15 474.935C387.394 493.524 387.133 508.261 386.807 508.525Z" fill="#FFFFF8"/>
<path d="M321.531 491.823C322.217 481.841 323.411 464.673 322.246 444.862C322.035 441.176 321.927 437.519 321.911 433.915C326.373 423.108 330.017 415.269 330.017 415.269H341.26C341.26 415.269 349.498 471.509 321.531 491.823Z" fill="#FFF2E2"/>
<path d="M299.661 495.319L297.525 498.993C297.525 498.993 301.707 507.84 291.791 511.142C291.791 511.142 287.523 512.219 287.159 509.264C286.795 506.308 287.423 507.468 286.804 503.299C286.184 499.129 287.816 495.41 290.894 494.415L293.328 492.091L299.661 495.319Z" fill="#C97E67"/>
<path d="M294.001 496.322C296.786 496.801 299.617 496.959 302.438 496.793C302.438 496.793 314.457 459.702 316.002 456.313C317.548 452.924 351.696 412.825 351.696 412.825L337.471 377.253C337.471 377.253 300.538 438.893 296.786 447.558C290.588 461.87 288.44 493.957 288.44 493.957C290.12 495.103 292.01 495.907 294.001 496.322Z" fill="#FFFFF8"/>
<path d="M360.464 376.081C357.602 370.717 352.989 366.492 347.392 364.11C347.392 364.11 352.763 367.317 361.336 366.413C361.336 366.43 360.894 373.183 360.464 376.081Z" fill="#B2604D"/>
<path d="M932.37 688.01H914.006V705.411H932.37V688.01Z" fill="#2D2861"/>
<path d="M1005.91 688.01H987.546V705.411H1005.91V688.01Z" fill="#2D2861"/>
<path d="M922.723 680.53H907.982V691.645H922.723V680.53Z" fill="#13375B"/>
<path d="M936.854 442.28C936.834 441.675 937.051 441.087 937.459 440.641C937.867 440.195 938.434 439.926 939.038 439.893H976.493C977.096 439.928 977.661 440.197 978.068 440.643C978.476 441.089 978.692 441.676 978.672 442.28V508.383H985.312V442.28C985.312 436.965 981.355 432.645 976.493 432.645H939.038C934.175 432.645 930.219 436.965 930.219 442.28V508.383H936.854V442.28Z" fill="#44474F"/>
<path d="M1005.85 692.15L916.213 687.14C911.424 687.14 907.542 683.065 907.542 678.037L899.042 518.619C898.774 507.472 911.424 505.709 916.213 505.709H1013.76C1018.55 505.709 1022.43 509.789 1022.43 514.817V678.037C1022.49 686.479 1014.16 692.006 1005.85 692.15Z" fill="#44474F"/>
<path d="M1003.89 510.7H909.027C903.497 510.7 899.015 515.182 899.015 520.71V682.121C899.015 687.65 903.497 692.131 909.027 692.131H1003.89C1009.42 692.131 1013.91 687.65 1013.91 682.121V520.71C1013.91 515.182 1009.42 510.7 1003.89 510.7Z" fill="#33353B"/>
<path d="M992.59 692.131H921.335V601.851C921.335 592.404 925.089 583.345 931.77 576.666C938.451 569.987 947.513 566.234 956.962 566.234C966.411 566.234 975.473 569.987 982.155 576.666C988.836 583.345 992.59 592.404 992.59 601.851V692.131Z" fill="#44474F"/>
<path d="M959.364 498.849C968.391 498.849 976.021 502.851 976.349 507.638H983.59C983.322 499.728 972.583 493.364 959.364 493.364C946.145 493.364 935.405 499.728 935.137 507.638H942.378C942.688 502.851 950.337 498.849 959.364 498.849Z" fill="#44474F"/>
<path d="M972.541 440.434H943.428C942.201 440.434 941.024 439.947 940.157 439.079C939.289 438.212 938.801 437.035 938.801 435.809C938.801 434.582 939.289 433.405 940.157 432.538C941.024 431.67 942.201 431.183 943.428 431.183H972.541C973.768 431.183 974.945 431.67 975.812 432.538C976.68 433.405 977.168 434.582 977.168 435.809C977.168 437.035 976.68 438.212 975.812 439.079C974.945 439.947 973.768 440.434 972.541 440.434Z" fill="#44474F"/>
</svg>
