<svg width="123" height="123" viewBox="0 0 123 123" fill="none" xmlns="http://www.w3.org/2000/svg">
<path d="M122.213 27.8798C121.951 26.217 121.19 24.6731 120.031 23.4527C118.872 22.2323 117.369 21.3932 115.722 21.0465L95.6658 16.639C93.515 16.1699 91.2886 16.1682 89.1371 16.6338C86.9856 17.0995 84.9592 18.0217 83.1949 19.3382L23.9158 62.5248L7.31076 61.8415C5.97592 61.7937 4.65996 62.1677 3.54979 62.9104C2.43962 63.6531 1.59168 64.7268 1.12642 65.9788C0.661162 67.2308 0.602229 68.5977 0.957995 69.8851C1.31376 71.1725 2.06614 72.3152 3.10826 73.1507L20.1916 86.5782C22.2416 89.0723 23.6083 88.594 57.5358 70.1098L60.7133 102.295C60.7661 103.173 61.0671 104.018 61.5812 104.731C62.0953 105.445 62.8014 105.998 63.6174 106.326C64.2046 106.559 64.8311 106.675 65.4624 106.668C66.7331 106.629 67.9468 106.132 68.8791 105.267L77.0449 97.819C77.858 97.0657 78.4088 96.0719 78.6166 94.9832L86.0991 54.3248C98.2966 47.4915 109.845 41.0682 118.079 36.3873C119.552 35.5587 120.737 34.3001 121.476 32.7799C122.215 31.2596 122.472 29.5501 122.213 27.8798ZM114.697 30.4423C106.155 35.294 94.1966 42.0932 81.3499 49.1315L79.9491 49.9173L71.9883 93.2065L66.9658 97.7848L63.2074 59.1765L58.6633 61.4998C34.1658 75.1665 25.9999 79.1298 23.1983 80.3598L8.50659 68.709L25.8633 69.4607L87.3633 24.839C88.3299 24.1163 89.4383 23.6058 90.6158 23.3408C91.7933 23.0759 93.0135 23.0625 94.1966 23.3015L114.184 27.6065C114.492 27.6623 114.774 27.8151 114.989 28.0425C115.204 28.2699 115.341 28.56 115.38 28.8707C115.45 29.1713 115.422 29.4866 115.299 29.7697C115.176 30.0528 114.964 30.2887 114.697 30.4423Z" fill="#575555"/>
<path d="M23.9169 42.8451L36.0802 46.2618L41.6836 42.196L28.0169 38.2326L34.1669 34.4743L52.8561 33.9276L60.7144 28.2218L34.1669 29.0418C33.33 28.9965 32.4982 29.1985 31.7752 29.6226L22.7894 34.8501C22.0465 35.2902 21.4505 35.9404 21.0766 36.7187C20.7026 37.4969 20.5674 38.3685 20.6879 39.2235C20.8085 40.0785 21.1795 40.8787 21.7541 41.5232C22.3287 42.1677 23.0813 42.6277 23.9169 42.8451Z" fill="#575555"/>
</svg>
