<svg width="112" height="123" viewBox="0 0 112 123" fill="none" xmlns="http://www.w3.org/2000/svg">
<path d="M59.5256 40.4728C59.5256 39.4204 59.1075 38.4112 58.3634 37.667C57.6193 36.9229 56.61 36.5049 55.5576 36.5049C54.5053 36.5049 53.496 36.9229 52.7519 37.667C52.0078 38.4112 51.5897 39.4204 51.5897 40.4728V63.4867H27.7822C26.7299 63.4867 25.7206 63.9047 24.9765 64.6488C24.2324 65.393 23.8143 66.4022 23.8143 67.4546C23.8143 68.5069 24.2324 69.5162 24.9765 70.2603C25.7206 71.0045 26.7299 71.4225 27.7822 71.4225H55.5576C56.61 71.4225 57.6193 71.0045 58.3634 70.2603C59.1075 69.5162 59.5256 68.5069 59.5256 67.4546V40.4728Z" fill="#575555"/>
<path d="M43.6539 3.96791C43.6539 2.91556 44.0719 1.9063 44.8161 1.16218C45.5602 0.418047 46.5695 0 47.6218 0H63.4935C64.5458 0 65.5551 0.418047 66.2992 1.16218C67.0433 1.9063 67.4614 2.91556 67.4614 3.96791C67.4614 5.02027 67.0433 6.02953 66.2992 6.77365C65.5551 7.51778 64.5458 7.93583 63.4935 7.93583V12.4593C74.2862 14.0147 84.079 18.6492 91.9355 25.474C91.9668 25.4392 91.9985 25.4048 92.0307 25.3708L94.84 22.5616L92.0307 19.7602C91.2856 19.0162 90.8666 18.0067 90.8659 16.9537C90.8652 15.9008 91.2827 14.8907 92.0267 14.1456C92.7708 13.4005 93.7803 12.9816 94.8332 12.9808C95.8862 12.9801 96.8963 13.3976 97.6413 14.1416L108.863 25.3708C109.242 25.7369 109.544 26.1747 109.752 26.6588C109.96 27.1429 110.069 27.6636 110.074 28.1904C110.078 28.7173 109.978 29.2398 109.778 29.7274C109.579 30.2151 109.284 30.6581 108.912 31.0307C108.539 31.4032 108.096 31.6978 107.609 31.8974C107.121 32.0969 106.598 32.1973 106.072 32.1927C105.545 32.1881 105.024 32.0786 104.54 31.8707C104.056 31.6627 103.618 31.3605 103.252 30.9815L100.451 28.1722L97.6413 30.9815C97.6075 31.0138 97.5731 31.0456 97.5382 31.0767C105.618 40.4041 110.362 52.1565 111.022 64.4793C111.682 76.8022 108.22 88.9939 101.182 99.1308C94.1437 109.268 83.9307 116.772 72.1543 120.461C60.3779 124.149 47.7086 123.811 36.1455 119.5C24.5824 115.189 14.784 107.151 8.29626 96.6535C1.80857 86.156 -0.998965 73.797 0.316671 61.5269C1.63231 49.2567 6.99621 37.7739 15.562 28.8904C24.1277 20.007 35.4077 14.2286 47.6218 12.4672V7.93583C46.5695 7.93583 45.5602 7.51778 44.8161 6.77365C44.0719 6.02953 43.6539 5.02027 43.6539 3.96791ZM55.5576 19.8396C49.3048 19.8401 43.1132 21.0722 37.3365 23.4656C31.5598 25.8589 26.311 29.3667 21.8899 33.7885C12.9611 42.7188 7.94559 54.8302 7.94664 67.4585C7.94769 80.0868 12.9653 92.1974 21.8955 101.126C30.8258 110.055 42.9373 115.071 55.5656 115.07C68.1939 115.068 80.3045 110.051 89.2333 101.121C98.1621 92.1903 103.178 80.0789 103.177 67.4506C103.176 54.8223 98.158 42.7117 89.2277 33.7829C80.2974 24.8541 68.1859 19.8385 55.5576 19.8396Z" fill="#575555"/>
</svg>
