<svg width="128" height="114" viewBox="0 0 128 114" fill="none" xmlns="http://www.w3.org/2000/svg">
<path d="M124.703 44.2272C126.46 42.4756 127.338 40.2861 127.338 38.0967C127.338 30.2146 115.482 23.6462 100.553 23.6462C98.7966 23.6462 97.0402 23.6462 95.7229 24.0841C95.2838 22.7704 94.8447 21.4567 93.9665 20.581C95.7229 18.8294 96.6011 16.6399 96.6011 14.4505C96.6011 6.56839 84.7455 0 69.8162 0C54.887 0 43.0314 6.1305 43.0314 14.4505V14.8884C38.6404 12.6989 32.9322 11.3852 26.7848 11.3852C11.8556 11.3852 0 17.9536 0 25.8357C0 28.0251 0.878191 30.2146 2.63457 31.9662C0.878191 33.7177 0 35.9072 0 38.0967C0 40.2861 0.878191 42.4756 2.63457 44.2272C0.878191 45.9787 0 48.1682 0 50.3577C0 52.5471 0.878191 54.7366 2.63457 56.4882C0.878191 58.2397 0 60.4292 0 62.6187C0 64.8081 0.878191 66.9976 2.63457 68.7492C0.878191 70.5007 0 72.6902 0 74.8797C0 77.0691 0.878191 79.2586 2.63457 81.0102C0.878191 82.7617 0 84.9512 0 87.1407C0 95.0227 11.8556 101.591 26.7848 101.591C35.5668 101.591 43.4705 99.4017 48.3005 95.8985C53.5697 99.4017 61.9125 101.591 69.8162 101.591C71.1335 101.591 72.8899 101.591 74.2072 101.153C75.9636 108.16 86.941 113.852 100.553 113.852C115.482 113.852 127.338 107.722 127.338 99.4017C127.338 97.2122 126.46 95.0227 124.703 93.2712C126.46 91.5196 127.338 89.3301 127.338 87.1407C127.338 84.9512 126.46 82.7617 124.703 81.0102C126.46 79.2586 127.338 77.0691 127.338 74.8797C127.338 72.6902 126.46 70.5007 124.703 68.7492C126.46 66.9976 127.338 64.8081 127.338 62.6187C127.338 60.4292 126.46 58.2397 124.703 56.4882C126.46 54.7366 127.338 52.5471 127.338 50.3577C127.338 48.1682 126.46 45.9787 124.703 44.2272ZM122.947 62.6187C122.947 64.3702 122.069 65.6839 120.312 66.9976C119.873 67.4355 119.434 67.8734 118.995 67.8734H118.556C117.678 68.3113 116.799 68.7492 115.482 69.1871C115.043 69.1871 114.604 69.625 114.165 69.625C113.726 69.625 113.287 70.0629 112.409 70.0629C111.969 70.0629 111.091 70.5007 110.652 70.5007C110.213 70.5007 109.335 70.9386 108.896 70.9386C108.018 70.9386 106.7 71.3765 105.822 71.3765C105.383 71.3765 104.944 71.3765 104.505 71.3765C103.188 71.3765 101.87 71.3765 100.553 71.3765C99.2357 71.3765 97.9184 71.3765 96.6011 71.3765C96.162 71.3765 95.7229 71.3765 95.2838 71.3765C94.4056 71.3765 93.0883 70.9386 92.2101 70.9386C91.771 70.9386 90.8928 70.5007 90.4537 70.5007C90.0146 70.5007 89.1365 70.0629 88.6974 70.0629C88.2583 70.0629 87.3801 69.625 86.941 69.625C86.5019 69.625 86.5019 69.1871 86.0628 69.1871C84.7455 68.7492 83.8673 68.3113 82.55 67.4355C82.1109 66.9976 81.6718 66.5597 80.7936 66.1218C79.0372 64.8081 78.1591 63.0566 78.1591 61.7429C78.1591 60.4292 78.5982 59.5534 79.4763 58.6776C82.1109 60.4292 85.1846 61.7429 88.6974 62.6187C90.4537 63.0566 92.2101 63.4945 93.9665 63.4945C93.9665 63.4945 93.9665 63.4945 94.4056 63.4945C96.162 63.9324 98.3575 63.9324 100.553 63.9324C102.748 63.9324 104.505 63.9324 106.7 63.4945C106.7 63.4945 106.7 63.4945 107.139 63.4945C108.896 63.0566 110.652 63.0566 112.409 62.6187C115.921 61.7429 118.995 60.4292 121.63 58.6776C122.508 60.4292 122.947 61.7429 122.947 62.6187ZM122.947 74.8797C122.947 76.6312 122.069 77.9449 120.312 79.6965C119.873 80.1344 119.434 80.5723 118.995 80.5723L118.556 81.0102C117.678 81.4481 116.799 81.886 115.921 82.3238C115.482 82.3238 115.043 82.7617 114.604 82.7617C114.165 82.7617 113.726 83.1996 112.848 83.1996C112.409 83.1996 111.53 83.6375 111.091 83.6375C110.652 83.6375 110.213 84.0754 109.335 84.0754C108.457 84.0754 107.139 84.5133 106.261 84.5133C105.822 84.5133 105.383 84.5133 104.944 84.5133C103.627 84.5133 102.309 84.5133 100.992 84.5133C99.6748 84.5133 98.3575 84.5133 97.0402 84.5133C96.6011 84.5133 96.162 84.5133 95.7229 84.5133C94.8447 84.5133 93.5274 84.0754 92.6492 84.0754C92.2101 84.0754 91.3319 83.6375 90.8928 83.6375C90.4537 83.6375 89.5755 83.1996 89.1365 83.1996C88.6974 83.1996 87.8192 82.7617 87.3801 82.7617C86.941 82.7617 86.5019 82.3238 86.0628 82.3238C85.1846 81.886 83.8673 81.4481 82.9891 81.0102H82.55C82.1109 80.5723 81.6718 80.1344 81.2327 80.1344C79.4763 78.8207 78.5982 77.0691 78.5982 75.7555C78.5982 74.4418 79.0373 73.566 79.9154 72.6902C82.55 74.4418 85.6237 75.7555 89.1365 76.6312C90.8928 77.0691 92.6492 77.507 94.4056 77.507C94.4056 77.507 94.4056 77.507 94.8447 77.507C96.6011 77.9449 98.7966 77.9449 100.992 77.9449C103.188 77.9449 104.944 77.9449 107.139 77.507C107.139 77.507 107.139 77.507 107.578 77.507C109.335 77.0691 111.091 77.0691 112.848 76.6312C116.36 75.7555 119.434 74.4418 122.069 72.6902C122.508 72.6902 122.947 73.566 122.947 74.8797ZM122.947 87.1407C122.947 88.8922 122.069 90.2059 119.873 91.9575C119.434 92.3954 118.995 92.8333 118.556 92.8333C118.556 92.8333 118.117 93.2712 117.678 93.2712C116.799 93.7091 115.921 94.147 115.043 94.5849C114.604 94.5849 114.165 95.0227 113.726 95.0227C113.287 95.0227 112.848 95.4606 111.969 95.4606C111.53 95.4606 110.652 95.8985 110.213 95.8985C109.774 95.8985 109.335 96.3364 108.457 96.3364C107.578 96.3364 106.261 96.7743 105.383 96.7743C104.944 96.7743 104.505 96.7743 104.066 96.7743C102.748 96.7743 101.431 96.7743 100.114 96.7743C98.7966 96.7743 97.4793 96.7743 96.162 96.7743C95.7229 96.7743 95.2838 96.7743 94.8447 96.7743C93.9665 96.7743 92.6492 96.3364 91.771 96.3364C91.3319 96.3364 90.4537 95.8985 90.0146 95.8985C89.5755 95.8985 88.6974 95.4606 88.2583 95.4606C87.8192 95.4606 86.941 95.0227 86.5019 95.0227C86.0628 95.0227 85.6237 94.5849 85.1846 94.5849C84.3064 94.147 82.9891 93.7091 82.1109 93.2712C82.1109 93.2712 81.6718 93.2712 81.6718 92.8333C81.2327 92.3954 80.7936 91.9575 80.3545 91.9575C78.5982 90.6438 77.72 88.8922 77.72 87.1407C77.72 85.827 78.1591 84.9512 79.0372 84.0754C81.6718 85.827 84.7455 87.1407 88.2583 88.0165C90.0146 88.4544 91.771 88.8922 93.5274 88.8922C93.5274 88.8922 93.5274 88.8922 93.9665 88.8922C95.7229 89.3301 97.9184 89.3301 100.114 89.3301C102.309 89.3301 104.066 89.3301 106.261 88.8922C106.261 88.8922 106.261 88.8922 106.7 88.8922C108.457 88.4543 110.213 88.4544 111.969 88.0165C115.482 87.1407 118.556 85.827 121.19 84.0754C122.508 84.9512 122.947 85.827 122.947 87.1407ZM69.8162 84.9512C62.3516 84.9512 55.7652 82.7617 51.8133 80.5723C53.1306 78.8207 54.0088 77.0691 54.0088 74.8797C54.0088 74.4418 54.0088 74.4418 54.0088 74.0039C58.8388 75.7555 64.5471 77.0691 70.2553 77.0691C71.5726 77.0691 73.329 77.0691 74.6463 76.6312C75.0854 77.9449 75.9636 79.6965 76.8418 81.0102C75.9636 82.3239 75.0854 83.1996 74.6463 84.5133C72.8899 84.5133 71.1335 84.9512 69.8162 84.9512ZM44.7878 80.5723C44.7878 80.5723 44.3487 80.5723 44.7878 80.5723C43.4705 81.4481 42.5923 81.886 41.275 82.3238C40.8359 82.3238 40.3968 82.7617 39.9577 82.7617C39.5186 82.7617 39.0795 83.1996 38.2013 83.1996C37.7622 83.1996 36.8841 83.6375 36.445 83.6375C36.0059 83.6375 35.1277 84.0754 34.6886 84.0754C33.8104 84.0754 32.4931 84.5133 31.6149 84.5133C31.1758 84.5133 30.7367 84.5133 30.2976 84.5133C28.9803 84.5133 27.663 84.5133 26.3457 84.5133C25.0285 84.5133 23.7112 84.5133 22.3939 84.5133C21.9548 84.5133 21.5157 84.5133 21.0766 84.5133C19.7593 84.5133 18.8811 84.0754 18.0029 84.0754C17.5638 84.0754 17.1247 83.6375 16.2465 83.6375C15.8074 83.6375 14.9293 83.1996 14.4902 83.1996C14.0511 83.1996 13.612 82.7617 12.7338 82.7617C12.2947 82.7617 11.8556 82.3238 11.4165 82.3238C10.5383 81.886 9.66011 81.4481 8.78192 81.0102L8.34282 80.5723C7.90373 80.1344 7.46463 79.6965 7.02553 79.6965C5.26915 78.3828 4.39096 76.6312 4.39096 74.8797C4.39096 73.566 4.83005 72.6902 5.70825 71.8144C8.34282 73.566 11.4165 74.8797 14.9293 75.7555C16.6856 76.1933 18.442 76.6312 20.1984 76.6312C20.1984 76.6312 20.1984 76.6312 20.6375 76.6312C22.3939 77.0691 24.5894 77.0691 26.7848 77.0691C28.9803 77.0691 30.7367 77.0691 32.9322 76.6312C32.9322 76.6312 32.9322 76.6312 33.3713 76.6312C35.1277 76.1934 37.3231 76.1933 38.6404 75.7555C42.1532 74.8797 45.2269 73.566 47.8614 71.8144C48.7396 72.6902 49.1787 74.0039 49.1787 74.8797C49.1787 76.6312 48.3005 77.9449 46.5442 79.2586C45.666 79.6965 45.2269 80.1344 44.7878 80.5723ZM5.70825 35.0314C8.34282 36.783 11.4165 38.0967 14.9293 38.9725C16.6856 39.4104 18.442 39.8482 20.1984 39.8482C20.1984 39.8482 20.1984 39.8482 20.6375 39.8482C22.3939 40.2861 24.5894 40.2861 26.7848 40.2861C28.9803 40.2861 30.7367 40.2861 32.9322 39.8482C32.9322 39.8482 32.9322 39.8482 33.3713 39.8482C35.1277 39.4104 37.3231 39.4104 38.6404 38.9725C42.1532 38.0967 45.2269 36.783 47.8614 35.0314C48.7396 35.9072 49.1787 37.2209 49.1787 38.0967C49.1787 39.8483 48.3005 41.1619 46.5442 42.4756C46.1051 42.9135 45.666 43.3514 45.2269 43.3514C45.2269 43.3514 45.2269 43.3514 44.7878 43.3514C43.9096 43.7893 43.0314 44.2272 41.7141 45.103C41.275 45.103 40.8359 45.5409 40.3968 45.5409C39.9577 45.5409 39.5186 45.9787 38.6404 45.9787C38.2013 45.9787 37.3231 46.4166 36.884 46.4166C36.445 46.4166 35.5668 46.8545 35.1277 46.8545C34.2495 47.7303 32.9322 47.7303 32.054 47.7303C31.6149 47.7303 31.1758 47.7303 30.7367 47.7303C29.4194 47.7303 28.1021 47.7303 26.7848 47.7303C25.4676 47.7303 24.1503 47.7303 22.833 47.7303C22.3939 47.7303 21.9548 47.7303 21.5157 47.7303C20.1984 47.7303 19.3202 47.2924 18.442 47.2924C18.0029 47.2924 17.5638 46.8545 16.6856 46.8545C16.2465 46.8545 15.3684 46.4166 14.9293 46.4166C14.4902 46.4166 14.0511 45.9787 13.1729 45.9787C12.7338 45.9787 12.2947 45.5409 11.8556 45.5409C10.9774 45.103 10.0992 44.6651 9.22101 44.2272C9.22101 44.2272 8.78192 44.2272 8.78192 43.7893C8.34282 43.3514 7.90373 42.9135 7.46463 42.9135C5.70825 41.5998 4.83005 39.8483 4.83005 38.0967C4.39096 37.2209 4.83005 35.9072 5.70825 35.0314ZM74.2072 40.2861C74.6463 41.5998 75.5245 43.3514 76.4027 44.6651C75.5245 45.9787 74.6463 46.8545 74.2072 48.1682C72.8899 48.1682 71.1335 48.6061 69.3771 48.6061C61.9125 48.6061 55.3261 46.4166 51.3742 44.2272C52.6915 42.4756 53.5697 40.724 53.5697 38.5346C53.5697 38.0967 53.5697 37.6588 53.5697 37.6588C58.3997 39.8482 64.5471 40.724 69.8162 40.724C71.1335 40.2861 72.8899 40.2861 74.2072 40.2861ZM89.1365 51.2335C90.8928 51.6714 92.6492 52.1092 94.4056 52.1092C94.4056 52.1092 94.4056 52.1092 94.8447 52.1092C96.6011 52.5471 98.7966 52.5471 100.992 52.5471C103.188 52.5471 104.944 52.5471 107.139 52.1092C107.139 52.1092 107.139 52.1092 107.578 52.1092C109.335 51.6714 111.091 51.6714 112.848 51.2335C116.36 50.3577 119.434 49.044 122.069 47.2924C122.947 48.1682 123.386 49.4819 123.386 50.3577C123.386 52.1092 122.508 53.4229 120.751 54.7366C120.312 55.1745 119.873 55.6124 119.434 55.6124H118.995C118.117 56.0503 117.239 56.4882 115.921 57.364C115.482 57.364 115.043 57.8018 115.043 57.8018C114.604 57.8018 113.726 58.2397 113.287 58.2397C112.848 58.2397 112.409 58.6776 111.53 58.6776C111.091 58.6776 110.213 59.1155 109.774 59.1155C108.896 59.1155 107.578 59.5534 106.7 59.5534C106.261 59.5534 105.822 59.5534 105.383 59.5534C104.066 59.5534 102.748 59.5534 101.431 59.5534C100.114 59.5534 98.7966 59.5534 97.4793 59.5534C97.0402 59.5534 96.6011 59.5534 96.162 59.5534C95.2838 59.5534 93.9665 59.1155 93.0883 59.1155C92.2101 59.1155 91.771 58.6776 90.8928 58.6776C90.4537 58.6776 90.0146 58.2397 89.1365 58.2397C88.6974 58.2397 87.8192 57.8018 87.3801 57.8018C86.941 57.8018 86.941 57.364 86.5019 57.364C85.1846 56.9261 84.3064 56.4882 82.9891 55.6124C82.55 55.1745 82.1109 54.7366 81.6718 54.2987C79.9154 52.985 79.0372 51.2335 79.0372 49.9198C79.0372 48.6061 79.4763 47.7303 80.3545 46.8545C82.1109 49.044 85.1846 50.3577 89.1365 51.2335C88.6974 51.2335 89.1365 51.2335 89.1365 51.2335ZM69.8162 72.6902C62.3516 72.6902 55.7652 70.5007 51.8133 68.3113C53.1306 66.5597 53.5697 64.8081 53.5697 62.6187C53.5697 62.1808 53.5697 61.7429 53.5697 61.7429C57.9606 63.4945 63.6689 64.8081 69.8162 64.8081C71.5726 64.8081 72.8899 64.8081 74.2072 64.3702C74.6463 65.6839 75.5245 67.4355 76.4027 68.7492C75.5245 70.0628 74.6463 70.9386 74.2072 72.2523C72.8899 72.6902 71.1335 72.6902 69.8162 72.6902ZM74.2072 52.5471C74.6463 53.8608 75.5245 55.6124 76.4027 56.9261C75.5245 58.2397 74.6463 59.1155 74.2072 60.4292C72.4508 60.4292 71.1335 60.8671 69.3771 60.8671C61.9125 60.8671 55.3261 58.6776 51.3742 56.4882C52.6915 54.7366 53.1306 52.985 53.1306 51.2335C53.1306 50.7956 53.1306 50.7956 53.1306 50.3577C57.9607 52.1092 63.6689 53.4229 69.3771 53.4229C71.1335 52.5471 72.8899 52.5471 74.2072 52.5471ZM5.70825 47.2924C8.34282 49.044 11.4165 50.3577 14.9293 51.2335C16.6856 51.6714 18.442 52.1092 20.6375 52.1092C20.6375 52.1092 20.6375 52.1092 21.0766 52.1092C22.833 52.5471 25.0285 52.5471 27.2239 52.5471C29.4194 52.5471 31.1758 52.5471 33.3713 52.1092C33.3713 52.1092 33.3713 52.1092 33.8104 52.1092C35.5668 51.6714 37.3231 51.6714 39.0795 51.2335C42.5923 50.3577 45.666 49.044 48.3005 47.2924C49.1787 48.1682 49.6178 49.4819 49.6178 50.3577C49.6178 51.6714 48.7396 53.4229 46.9833 54.7366C46.5442 55.1745 46.1051 55.6124 45.666 56.0503C44.7878 56.4882 43.4705 57.364 42.1532 57.8018C41.7141 57.8018 41.7141 58.2397 41.275 58.2397C40.8359 58.2397 39.9577 58.6776 39.5186 58.6776C39.0795 58.6776 38.6404 59.1155 37.7622 59.1155C37.3231 59.1155 36.445 59.5534 35.5668 59.5534C34.6886 59.5534 33.8104 59.9913 32.4931 59.9913C32.054 59.9913 31.6149 59.9913 31.1758 59.9913C29.8585 59.9913 28.5412 59.9913 27.2239 59.9913C25.9067 59.9913 24.5894 59.9913 23.2721 59.9913C22.833 59.9913 22.3939 59.9913 21.9548 59.9913C21.0766 59.9913 19.7593 59.5534 18.8811 59.5534C18.442 59.5534 17.5638 59.1155 17.1247 59.1155C16.6856 59.1155 15.8075 58.6776 15.3684 58.6776C14.9293 58.6776 14.0511 58.2397 13.612 58.2397C13.1729 58.2397 12.7338 57.8018 12.7338 57.8018C11.4165 57.364 10.5383 56.9261 9.66011 56.0503H9.22101C8.78192 55.6124 8.34282 55.1745 7.90372 55.1745C6.14734 53.8608 5.26915 52.1092 5.26915 50.7956C4.39096 49.044 4.83005 48.1682 5.70825 47.2924ZM5.70825 59.5534C8.34282 61.305 11.4165 62.6187 14.9293 63.4945C16.6856 63.9324 18.442 64.3702 20.1984 64.3702C20.1984 64.3702 20.1984 64.3702 20.6375 64.3702C22.3939 64.8081 24.5894 64.8081 26.7848 64.8081C28.9803 64.8081 30.7367 64.8081 32.9322 64.3702C32.9322 64.3702 32.9322 64.3702 33.3713 64.3702C35.1277 63.9323 37.3231 63.9324 38.6404 63.4945C42.1532 62.6187 45.2269 61.305 47.8614 59.5534C48.7396 60.4292 49.1787 61.7429 49.1787 62.6187C49.1787 63.9323 48.3005 65.6839 46.5442 66.9976C46.1051 67.4355 45.666 67.8734 44.7878 68.3113C43.9096 68.7492 42.5923 69.625 41.275 70.0629C40.8359 70.0629 40.8359 70.5007 40.3968 70.5007C39.9577 70.5007 39.0795 70.9386 38.6404 70.9386C38.2013 70.9386 37.7622 71.3765 36.884 71.3765C36.445 71.3765 35.5668 71.8144 35.1277 71.8144C34.2495 71.8144 32.9322 72.2523 32.054 72.2523C31.6149 72.2523 31.1758 72.2523 30.7367 72.2523C29.4194 72.2523 28.1021 72.2523 26.7848 72.2523C25.4676 72.2523 24.1503 72.2523 22.833 72.2523C22.3939 72.2523 21.9548 72.2523 21.5157 72.2523C20.6375 72.2523 19.3202 71.8144 18.442 71.8144C18.0029 71.8144 17.1247 71.3765 16.6856 71.3765C16.2465 71.3765 15.3684 70.9386 14.9293 70.9386C14.4902 70.9386 13.612 70.5007 13.1729 70.5007C12.7338 70.5007 12.2947 70.0629 11.8556 70.0629C10.9774 69.625 10.0992 69.1871 8.78192 68.3113H8.34282C7.90373 67.8734 7.46463 67.4355 7.02553 67.4355C5.26915 66.1218 4.39096 64.3702 4.39096 63.0566C4.39096 61.7429 4.83005 60.4292 5.70825 59.5534ZM122.947 38.0967C122.947 39.8483 122.069 41.1619 120.312 42.4756C119.873 42.9135 119.434 43.3514 118.995 43.3514C118.995 43.3514 118.556 43.3514 118.556 43.7893C117.678 44.2272 116.799 44.6651 115.921 45.103C115.482 45.103 115.043 45.5409 114.604 45.5409C114.165 45.5409 113.726 45.9787 112.848 45.9787C112.409 45.9787 111.53 46.4166 111.091 46.4166C110.652 46.4166 110.213 46.8545 109.335 46.8545C108.457 46.8545 107.139 47.2924 106.261 47.2924C105.822 47.2924 105.383 47.2924 104.944 47.2924C103.627 47.2924 102.309 47.2924 100.992 47.2924C99.6748 47.2924 98.3575 47.2924 97.0402 47.2924C96.6011 47.2924 96.162 47.2924 95.7229 47.2924C94.8447 47.2924 93.5274 46.8545 92.6492 46.8545C92.2101 46.8545 91.3319 46.4166 90.8928 46.4166C90.4537 46.4166 89.5755 45.9787 89.1365 45.9787C88.6974 45.9787 87.8192 45.5409 87.3801 45.5409C86.941 45.5409 86.5019 45.103 86.0628 45.103C84.7455 44.6651 83.8673 44.2272 82.9891 43.3514C82.9891 43.3514 82.9891 43.3514 82.55 43.3514C82.1109 42.9135 81.6718 42.4756 81.2327 42.4756C79.4763 41.1619 78.5982 39.4104 78.5982 38.0967C78.5982 33.2799 87.8192 28.0251 100.992 28.0251C113.726 28.0251 122.947 33.2799 122.947 38.0967ZM74.2072 35.9072C72.8899 35.9072 71.1335 36.3451 69.3771 36.3451C62.3516 36.3451 55.3261 34.1556 51.3742 31.5283C52.6915 29.7767 53.1306 28.0251 53.1306 26.2736V25.8357C57.5216 27.5872 63.2298 28.9009 69.3771 28.9009C77.72 28.9009 85.1846 26.7115 90.0146 23.6462C90.4537 24.0841 90.4537 24.522 90.8928 24.9599C82.55 26.2736 75.9636 30.6525 74.2072 35.9072ZM69.8162 3.94104C82.9891 3.94104 92.2101 9.19575 92.2101 14.0126C92.2101 18.8294 82.9891 24.0841 69.8162 24.0841C56.6434 24.0841 47.4224 18.8294 47.4224 14.0126C47.4224 9.19575 56.6434 3.94104 69.8162 3.94104ZM26.7848 15.7641C39.9577 15.7641 49.1787 21.0189 49.1787 25.8357C49.1787 27.1494 48.3005 28.9009 46.5442 30.2146C46.1051 30.6525 45.666 31.0904 44.7878 31.5283C43.9096 31.9662 42.5923 32.842 41.275 33.2799C40.8359 33.2799 40.8359 33.7177 40.3968 33.7177C39.9577 33.7177 39.0795 34.1556 38.6404 34.1556C38.2013 34.5935 37.3231 34.5935 36.884 34.5935C36.445 34.5935 35.5668 35.0314 35.1277 35.0314C34.2495 35.0314 32.9322 35.4693 32.054 35.4693C31.6149 35.4693 31.1758 35.4693 30.7367 35.4693C29.4194 35.4693 28.1021 35.4693 26.7848 35.4693C25.4676 35.4693 24.1503 35.4693 22.833 35.4693C22.3939 35.4693 21.9548 35.4693 21.5157 35.4693C20.1984 35.4693 19.3202 35.0314 18.442 35.0314C18.0029 35.0314 17.5638 34.5935 16.6856 34.5935C15.8075 34.5935 15.3684 34.5935 14.9293 34.1556C14.4902 34.1556 14.0511 33.7177 13.1729 33.7177C12.7338 33.7177 12.2947 33.2799 11.8556 33.2799C10.5383 32.842 9.66011 32.4041 8.78192 31.9662C8.78192 31.9662 8.78192 31.9662 8.34282 31.9662C7.90373 31.5283 7.46463 31.0904 7.02553 30.6525C5.26915 28.9009 4.39096 27.5872 4.39096 25.8357C4.39096 21.0189 13.612 15.7641 26.7848 15.7641ZM4.39096 87.1407C4.39096 85.827 4.83005 84.9512 5.70825 84.0754C8.34282 85.827 11.4165 87.1407 14.9293 88.0165C16.6856 88.4544 18.442 88.8922 20.1984 88.8922C20.1984 88.8922 20.1984 88.8922 20.6375 88.8922C22.3939 89.3301 24.5894 89.3301 26.7848 89.3301C28.9803 89.3301 30.7367 89.3301 32.9322 88.8922C32.9322 88.8922 32.9322 88.8922 33.3713 88.8922C35.1277 88.4543 36.8841 88.4544 38.6404 88.0165C42.1532 87.1407 45.2269 85.827 47.8614 84.0754C48.7396 84.9512 49.1787 86.2649 49.1787 87.1407C49.1787 91.9575 39.9577 97.2122 26.7848 97.2122C13.612 97.2122 4.39096 91.9575 4.39096 87.1407ZM51.3742 92.3954C52.6915 90.6438 53.1306 88.8922 53.1306 86.7028C53.1306 86.2649 53.1306 86.2649 53.1306 85.827C57.9607 87.5786 63.6689 88.8922 69.3771 88.8922C70.6944 88.8922 72.4508 88.8922 73.7681 88.4543C74.2072 89.768 75.0854 91.5196 75.9636 92.8333C75.0854 94.1469 74.2072 95.0227 73.7681 96.3364C72.0117 96.3364 70.6944 96.7743 68.938 96.7743C62.3516 97.2122 55.7652 95.0227 51.3742 92.3954ZM100.553 109.473C87.3801 109.473 78.1591 104.218 78.1591 99.4017C78.1591 98.5259 78.5982 97.2122 79.4763 96.3364C82.1109 98.088 85.1846 99.4017 88.6974 100.277C90.4537 100.715 92.2101 101.153 93.9665 101.153C93.9665 101.153 93.9665 101.153 94.4056 101.153C96.162 101.591 98.3575 101.591 100.553 101.591C102.748 101.591 104.505 101.591 106.7 101.153C106.7 101.153 106.7 101.153 107.139 101.153C108.896 100.715 110.652 100.715 112.409 100.277C115.921 99.4017 118.995 98.088 121.63 96.3364C122.508 97.2122 122.947 98.5259 122.947 99.4017C122.947 104.218 113.726 109.473 100.553 109.473Z" fill="#F79D31"/>
</svg>
