<svg width="10" height="19" viewBox="0 0 10 19" fill="none" xmlns="http://www.w3.org/2000/svg">
<path d="M0.00857544 10.3427C0.00857544 9.21887 0.00857544 8.09503 0.00857544 6.97219C0.0280926 6.97321 0.0476098 6.97422 0.067127 6.97422C1.0132 6.97422 1.95927 6.97422 2.90431 6.97422C2.98135 6.97422 2.97622 6.98334 2.97622 6.9043C2.97622 6.10169 2.97724 5.29808 2.97622 4.49547C2.97622 4.2553 2.98649 4.01614 3.0132 3.778C3.03477 3.57937 3.06764 3.38176 3.11078 3.18719C3.18885 2.83859 3.30287 2.50113 3.46209 2.1809C3.7528 1.59516 4.16677 1.1138 4.7153 0.746957C5.09024 0.49665 5.49907 0.320321 5.93359 0.201755C6.12979 0.148045 6.33009 0.10751 6.53143 0.0791349C6.64031 0.0629207 6.7492 0.0538002 6.85809 0.0426529C7.01114 0.0264388 7.16522 0.019345 7.31931 0.0203584C7.60796 0.0223852 7.89661 0.0284655 8.18526 0.0335325C8.30852 0.0355592 8.43179 0.0406262 8.55608 0.0446797C8.62388 0.0467065 8.69168 0.0497467 8.75947 0.0538002C8.88377 0.0608939 9.00909 0.069001 9.13338 0.0760947C9.22788 0.082175 9.32136 0.0862286 9.41587 0.0943357C9.56481 0.106496 9.71376 0.120684 9.86271 0.133858C9.90893 0.137911 9.95516 0.145005 10.0024 0.151085C10.0024 1.15535 10.0024 2.15658 10.0024 3.16186C9.98186 3.16186 9.9644 3.16186 9.94694 3.16186C9.39019 3.16186 8.83343 3.16287 8.27565 3.16186C8.09075 3.16186 7.90688 3.16794 7.72301 3.19327C7.56276 3.21557 7.40662 3.25104 7.25767 3.31083C6.94745 3.43547 6.73276 3.65132 6.61772 3.96345C6.55916 4.12255 6.52629 4.28773 6.51397 4.45595C6.50267 4.61708 6.49856 4.77922 6.49753 4.94035C6.49548 5.35584 6.4965 5.77032 6.4965 6.1858C6.4965 6.428 6.4965 6.67122 6.4965 6.91342C6.4965 6.93166 6.49959 6.9499 6.50164 6.97118C6.6321 6.97118 6.75639 6.97118 6.88171 6.97118C7.00703 6.97118 7.13133 6.97118 7.25665 6.97118C7.38197 6.97118 7.50626 6.97118 7.63158 6.97118C7.7569 6.97118 7.8812 6.97118 8.00652 6.97118C8.13287 6.97118 8.25922 6.97118 8.38556 6.97118C8.51088 6.97118 8.63518 6.97118 8.7605 6.97118C8.88582 6.97118 9.01011 6.97118 9.13543 6.97118C9.26076 6.97118 9.38505 6.97118 9.51037 6.97118C9.63466 6.97219 9.75896 6.96915 9.88633 6.97321C9.75279 7.99673 9.61926 9.01417 9.48674 10.0316C9.47442 10.1228 9.46312 10.214 9.45182 10.3042C9.45079 10.3093 9.44976 10.3154 9.44771 10.3204C9.44668 10.3235 9.44566 10.3255 9.44463 10.3275C9.4436 10.3285 9.4436 10.3306 9.44257 10.3306C9.44155 10.3316 9.44052 10.3326 9.4323 10.3377C8.46055 10.3377 7.48264 10.3377 6.49856 10.3377C6.49753 10.365 6.4965 10.3873 6.4965 10.4106C6.4965 13.2471 6.4965 16.0836 6.4965 18.919C6.4965 18.9352 6.49753 18.9514 6.4965 18.9687C6.49548 18.9788 6.49342 18.9889 6.49239 18.9991C6.43692 19.0072 3.01012 19.0051 2.97416 18.996C2.97416 18.9758 2.97416 18.9545 2.97416 18.9332C2.97416 16.0896 2.97416 13.2471 2.97416 10.4035C2.97416 10.3295 2.97724 10.3377 2.90637 10.3377C1.95824 10.3377 1.00909 10.3377 0.0609637 10.3377C0.0445282 10.3407 0.0270654 10.3417 0.00857544 10.3427Z" fill="white"/>
</svg>
