<svg width="118" height="125" viewBox="0 0 118 125" fill="none" xmlns="http://www.w3.org/2000/svg">
<path d="M115.354 101.311H103.441V89.3699C103.441 88.7131 102.905 88.1758 102.249 88.1758H95.1013C94.4461 88.1758 93.91 88.7131 93.91 89.3699V101.311H81.9966C81.3414 101.311 80.8053 101.849 80.8053 102.505V109.67C80.8053 110.327 81.3414 110.864 81.9966 110.864H93.91V122.806C93.91 123.463 94.4461 124 95.1013 124H102.249C102.905 124 103.441 123.463 103.441 122.806V110.864H115.354C116.009 110.864 116.545 110.327 116.545 109.67V102.505C116.545 101.849 116.009 101.311 115.354 101.311ZM38.1404 60.4717C38.0064 59.1731 37.9319 57.8595 37.9319 56.5311C37.9319 54.1577 38.1553 51.844 38.5723 49.5901C38.6765 49.0527 38.3936 48.5005 37.9021 48.2766C35.8768 47.366 34.0154 46.1122 32.4071 44.5299C30.5119 42.6881 29.0207 40.4705 28.0284 38.0186C27.0361 35.5668 26.5646 32.9345 26.644 30.2898C26.778 25.4983 28.699 20.9457 32.0497 17.5125C35.7279 13.736 40.672 11.6761 45.9288 11.7358C50.6792 11.7806 55.2659 13.6166 58.7357 16.8706C59.9121 17.9752 60.9248 19.1992 61.7736 20.5128C62.0714 20.9755 62.6522 21.1696 63.1585 20.9904C65.7795 20.0799 68.5493 19.438 71.3937 19.1395C72.2276 19.05 72.7041 18.1543 72.3318 17.408C67.492 7.8101 57.6039 1.18262 46.167 1.0035C29.667 0.749747 15.907 14.3182 15.907 30.857C15.907 40.231 20.2107 48.59 26.9567 54.0681C22.2211 56.2624 17.8578 59.2925 14.0753 63.0839C5.91465 71.2488 1.29821 82.026 1.00037 93.5345C0.996398 93.6938 1.02428 93.8523 1.08236 94.0006C1.14045 94.149 1.22758 94.2842 1.3386 94.3982C1.44963 94.5123 1.5823 94.6029 1.72882 94.6648C1.87534 94.7267 2.03273 94.7585 2.19171 94.7585H10.546C11.1863 94.7585 11.7224 94.251 11.7373 93.6091C12.0203 84.9516 15.5198 76.8464 21.6701 70.6965C26.0483 66.3081 31.4093 63.263 37.2618 61.7853C37.8277 61.6211 38.2149 61.0688 38.1404 60.4717ZM105.228 56.5311C105.228 40.2012 92.1379 26.9313 75.9059 26.6775C59.4058 26.4238 45.6607 39.9922 45.6607 56.5311C45.6607 65.9051 49.9793 74.264 56.7104 79.7422C51.9258 81.9652 47.5701 85.0173 43.8439 88.7579C35.6833 96.9229 31.0668 107.7 30.769 119.194C30.765 119.353 30.7929 119.511 30.851 119.66C30.9091 119.808 30.9962 119.943 31.1072 120.057C31.2182 120.171 31.3509 120.262 31.4974 120.324C31.6439 120.386 31.8013 120.418 31.9603 120.418H40.2997C40.94 120.418 41.4761 119.91 41.491 119.268C41.774 110.611 45.2735 102.505 51.4238 96.3556C57.8422 89.9222 66.3603 86.3846 75.4442 86.3846C91.8847 86.3846 105.228 73.0251 105.228 56.5311ZM88.9213 70.0398C85.3175 73.652 80.5372 75.6373 75.4442 75.6373C70.3512 75.6373 65.571 73.652 61.9672 70.0398C60.1688 68.2466 58.7479 66.1098 57.7887 63.756C56.8294 61.4022 56.3513 58.8794 56.3828 56.337C56.4275 51.441 58.3783 46.7092 61.7885 43.2015C65.3625 39.5295 70.1428 37.4845 75.2506 37.4248C80.2989 37.38 85.1983 39.3503 88.8021 42.888C92.4953 46.5152 94.5206 51.3664 94.5206 56.5311C94.5057 61.636 92.5251 66.4275 88.9213 70.0398Z" fill="#575555" stroke="white" stroke-width="1.2"/>
</svg>
