<svg width="84" height="115" viewBox="0 0 84 115" fill="none" xmlns="http://www.w3.org/2000/svg">
<path d="M28.1674 102.658C24.874 102.658 21.7381 102.658 18.4654 102.658C18.4654 103.375 18.4654 104.056 18.4654 104.74C18.4654 111.193 16.8395 113.993 13.0972 113.973C9.3787 113.953 7.78548 111.164 7.78548 104.678C7.78548 104.03 7.78548 103.378 7.78548 102.688C6.9859 102.573 6.24279 102.537 5.52941 102.357C2.23002 101.512 0.0452816 98.3889 0.0304195 94.4568C0.00366761 87.4309 -0.00227679 80.405 0.000695638 73.3791C0.00366806 62.7158 0.015559 52.0557 0.0274487 41.3925C0.0333935 35.8562 2.93448 32.6706 7.98166 32.6608C9.05471 32.6575 10.1248 32.6608 11.3494 32.6608C11.3494 32.1501 11.3494 31.7146 11.3494 31.2825C11.3494 23.808 11.3464 16.3303 11.3494 8.85582C11.3524 3.58147 14.414 0.22566 19.2145 0.219112C23.034 0.215839 26.8536 0.212565 30.6732 0.219112C35.3191 0.228934 38.3688 3.5782 38.3866 8.76743C38.4134 16.2026 38.3955 23.6378 38.3955 31.0729C38.3955 31.5509 38.3955 32.0289 38.3955 32.6608C39.6588 32.6608 40.7973 32.6543 41.9357 32.6608C46.6916 32.687 49.6283 35.9249 49.6343 41.1567C49.6402 46.7519 49.6432 52.3504 49.6462 57.9456C49.6462 58.3909 49.6462 58.8361 49.6462 59.4025C50.1128 59.4254 50.5082 59.4615 50.9035 59.4615C54.8717 59.4647 58.8399 59.4516 62.8051 59.468C66.4107 59.4811 68.5478 61.8383 68.5657 65.7835C68.5716 67.0014 68.5657 68.2193 68.5657 69.6042C70.6761 69.6042 72.7003 69.5813 74.7245 69.614C75.6817 69.6304 76.6596 69.6402 77.59 69.853C80.818 70.5929 83.1989 73.7556 83.2078 77.3733C83.2316 86.9725 83.2346 96.5718 83.1811 106.171C83.1573 110.663 80.1492 114.012 76.0562 114.029C62.4484 114.081 48.8406 114.081 35.2299 114.025C31.2142 114.009 28.3517 110.797 28.1734 106.368C28.1258 105.153 28.1674 103.935 28.1674 102.658ZM31.7759 93.013C31.7759 97.5998 31.7016 102.21 31.8116 106.809C31.8592 108.761 33.4197 110.113 35.3458 110.116C48.8763 110.136 62.4068 110.139 75.9373 110.116C78.1666 110.113 79.6142 108.479 79.629 106.014C79.6588 101.807 79.638 97.5998 79.635 93.3961C79.635 93.2193 79.5934 93.0425 79.5696 92.8624C78.7373 93.144 78.012 93.455 77.26 93.6285C76.5139 93.802 75.7441 93.8348 74.8821 93.9461C74.8821 94.8628 74.9475 95.7239 74.8702 96.5685C74.5819 99.6526 72.4477 101.637 69.6328 101.506C67.0438 101.381 65.0701 99.0895 64.9988 96.1102C64.9809 95.3866 64.9958 94.6631 64.9958 93.9035C58.7032 93.9035 52.5383 93.9035 46.2784 93.9035C46.2784 94.7057 46.2933 95.4325 46.2754 96.1593C46.1982 99.2597 44.0848 101.515 41.2669 101.512C38.4461 101.509 36.3386 99.2466 36.2732 96.1462C36.2584 95.3899 36.2702 94.6336 36.2702 94.0607C34.68 93.6907 33.283 93.3633 31.7759 93.013ZM64.9928 89.8373C64.9928 88.0333 64.9809 86.2883 64.9958 84.5433C65.0107 82.8736 65.6527 82.1631 67.1776 82.1467C68.9194 82.1271 70.6642 82.1402 72.406 82.1435C74.356 82.1467 74.9088 82.759 74.9148 84.9296C74.9207 86.5502 74.9148 88.1675 74.9148 89.7587C77.6197 90.1778 79.5042 88.5604 79.5785 85.7841C79.6499 83.0896 79.6142 80.3919 79.5845 77.6941C79.5696 76.414 79.2159 75.1503 78.1785 74.5348C77.2778 74.0011 76.1781 73.6279 75.1645 73.6246C65.2276 73.5755 55.2878 73.6213 45.348 73.6312C42.1586 73.6344 38.9692 73.5755 35.7828 73.5951C33.1938 73.6115 31.7938 75.1797 31.7849 77.9888C31.7759 80.6047 31.8592 83.2206 31.7641 85.8332C31.6689 88.4098 34.2193 90.4528 36.2673 89.7194C36.2673 88.089 36.2643 86.4225 36.2673 84.7561C36.2732 82.8179 36.8558 82.1566 38.5828 82.1467C40.3633 82.1369 42.1438 82.1369 43.9242 82.1467C45.6661 82.1533 46.2695 82.8179 46.2754 84.7201C46.2814 86.4193 46.2754 88.1152 46.2754 89.8373C52.5829 89.8373 58.724 89.8373 64.9928 89.8373ZM34.7097 32.556C34.7276 32.1075 34.7513 31.7867 34.7513 31.4658C34.7543 23.8702 34.7603 16.2779 34.7484 8.6823C34.7454 5.75211 33.274 4.14787 30.6137 4.14132C26.7971 4.13477 22.9776 4.13477 19.161 4.14132C16.3936 4.14459 14.9044 5.7783 14.9044 8.82308C14.9015 16.3368 14.9015 23.8506 14.9044 31.361C14.9044 31.7539 14.9342 32.1468 14.952 32.556C21.5746 32.556 28.0872 32.556 34.7097 32.556ZM3.58841 49.1648C17.8085 49.1648 31.9067 49.1648 46.0703 49.1648C46.0703 46.3885 46.0763 43.7006 46.0703 41.0094C46.0644 38.1709 44.6674 36.6026 42.0932 36.5928C40.2414 36.5863 38.3896 36.6681 36.5378 36.6714C28.753 36.6812 20.9652 36.678 13.1804 36.6681C11.2157 36.6649 9.25386 36.5634 7.28909 36.6026C5.14002 36.6452 3.65381 38.1938 3.60328 40.4725C3.54086 43.3241 3.58841 46.1823 3.58841 49.1648ZM3.71029 60.2374C4.08778 60.257 4.37908 60.2865 4.67038 60.2865C17.9452 60.2898 31.2231 60.2898 44.4979 60.2832C44.8279 60.2832 45.1816 60.2898 45.4759 60.1588C45.7077 60.054 46.0258 59.7496 46.0287 59.5269C46.0703 57.4251 46.0525 55.3199 46.0525 53.2278C31.8413 53.2278 17.7966 53.2278 3.70434 53.2278C3.71028 55.5884 3.71029 57.8932 3.71029 60.2374ZM3.72218 86.5568C3.65975 86.7303 3.60922 86.8023 3.60922 86.8743C3.59733 89.3658 3.57653 91.8573 3.59139 94.3488C3.60328 97.0171 5.0241 98.5984 7.46743 98.654C8.50481 98.677 9.54219 98.5755 10.5796 98.5788C15.9924 98.5984 21.4051 98.6344 26.815 98.6606C27.24 98.6639 27.668 98.6213 28.0782 98.6017C28.0782 94.4928 28.0782 90.5444 28.0782 86.5568C19.9189 86.5568 11.8399 86.5568 3.72218 86.5568ZM42.6996 64.3986C29.6358 64.3986 16.6849 64.3986 3.68056 64.3986C3.68056 66.7526 3.68056 69.0182 3.68056 71.3427C3.98375 71.3852 4.23343 71.4474 4.48014 71.4474C12.9664 71.454 21.4527 71.4573 29.942 71.4376C30.3284 71.4376 30.7802 71.3427 31.0893 71.1102C32.6201 69.9545 34.2995 69.5387 36.1335 69.5878C38.3064 69.6435 40.4792 69.6009 42.7026 69.6009C42.6996 67.797 42.6996 66.1338 42.6996 64.3986ZM28.1347 75.553C20.0616 75.553 11.8904 75.553 3.71326 75.553C3.71326 77.9331 3.71326 80.2315 3.71326 82.5069C11.8726 82.5069 19.9397 82.5069 28.1347 82.5069C28.1347 80.1529 28.1347 77.8808 28.1347 75.553ZM65.0047 69.5485C65.0047 68.1571 65.0196 66.8933 65.0017 65.6296C64.9809 64.0908 64.3686 63.4164 62.9478 63.3935C61.3546 63.3673 59.7613 63.3804 58.1651 63.3869C54.8301 63.4 51.495 63.423 48.157 63.4262C47.1493 63.4295 46.4508 63.9861 46.3616 65.0305C46.2368 66.5136 46.3289 68.0163 46.3289 69.5452C52.5859 69.5485 58.7269 69.5485 65.0047 69.5485ZM39.8312 86.1344C39.8312 89.3658 39.8253 92.535 39.8342 95.7009C39.8372 97.0007 40.283 97.5704 41.2461 97.5835C42.2567 97.5998 42.7115 97.0138 42.7174 95.6387C42.7264 93.1538 42.7204 90.6656 42.7204 88.1806C42.7204 87.5062 42.7204 86.8285 42.7204 86.1344C41.686 86.1344 40.8151 86.1344 39.8312 86.1344ZM68.5538 86.1181C68.5538 89.4215 68.5449 92.5907 68.5597 95.7599C68.5657 97.0269 69.0531 97.5998 70.0281 97.5835C70.9912 97.5704 71.4251 97.004 71.4311 95.6977C71.44 92.8068 71.437 89.9158 71.4311 87.0282C71.4311 86.7237 71.3687 86.4193 71.336 86.1181C70.3967 86.1181 69.5555 86.1181 68.5538 86.1181ZM11.3494 102.714C11.3494 104.564 11.3197 106.269 11.3583 107.972C11.3821 109.072 12.0687 109.825 13.0021 109.91C13.9206 109.995 14.8034 109.386 14.848 108.404C14.9342 106.515 14.8717 104.619 14.8717 102.714C13.656 102.714 12.5622 102.714 11.3494 102.714Z" fill="#F79D31"/>
</svg>
