<svg width="134" height="125" viewBox="0 0 134 125" fill="none" xmlns="http://www.w3.org/2000/svg">
<path d="M131.011 27.6051L83.7035 1.58581C83.0049 1.20151 82.2205 1 81.4232 1C80.6259 1 79.8416 1.20151 79.143 1.58581L31.8352 27.6051C31.0935 28.0135 30.4749 28.6135 30.0441 29.3424C29.6134 30.0713 29.3861 30.9025 29.3861 31.7493C29.3861 32.596 29.6134 33.4272 30.0441 34.1561C30.4749 34.8851 31.0935 35.485 31.8352 35.8934L76.6924 60.5644V111.274L62.3298 103.373L57.7693 111.657L79.143 123.413C79.8413 123.798 80.6258 124 81.4232 124C82.2207 124 83.0052 123.798 83.7035 123.413L131.011 97.3936C131.753 96.9854 132.372 96.3855 132.803 95.6565C133.234 94.9276 133.462 94.0963 133.462 93.2494V31.7493C133.462 30.9024 133.234 30.0711 132.803 29.3421C132.372 28.6132 131.753 28.0133 131.011 27.6051ZM81.4232 11.1325L118.915 31.7493L81.4232 52.366L43.9318 31.7493L81.4232 11.1325ZM124 90.4535L86.154 111.269V60.5597L124 39.7443V90.4535Z" fill="#575555" stroke="white"/>
<path d="M38.8462 62.4993H1V53.0377H38.8462V62.4993Z" fill="#575555" stroke="white"/>
<path d="M48.3078 100.346H10.4615V90.884H48.3078V100.346Z" fill="#575555" stroke="white"/>
<path d="M57.7694 81.4224H19.9231V71.9608H57.7694V81.4224Z" fill="#575555" stroke="white"/>
</svg>
