<svg width="20" height="19" viewBox="0 0 20 19" fill="none" xmlns="http://www.w3.org/2000/svg">
<g clip-path="url(#clip0_552_1621)">
<path d="M4.91713 9.43707C4.91661 8.47052 5.21729 7.52556 5.78109 6.72185C6.34489 5.91815 7.14646 5.29185 8.08428 4.92228C9.0221 4.55271 10.054 4.45648 11.0493 4.64579C12.0446 4.8351 12.9585 5.30142 13.6753 5.9857C14.3921 6.66999 14.8795 7.54146 15.0759 8.48975C15.2722 9.43804 15.1687 10.4205 14.7784 11.3127C14.388 12.2049 13.7284 12.9667 12.8831 13.5017C12.0378 14.0367 11.0448 14.3207 10.0299 14.3179C9.35737 14.318 8.69146 14.1917 8.07029 13.9464C7.44912 13.701 6.8849 13.3413 6.40995 12.8879C5.93501 12.4345 5.55867 11.8963 5.3025 11.3041C5.04634 10.712 4.91538 10.0775 4.91713 9.43707ZM10.0405 6.26632C9.38194 6.26699 8.73839 6.45375 8.19133 6.80294C7.64427 7.15213 7.21832 7.64805 6.96739 8.22792C6.71646 8.80779 6.65185 9.44552 6.78174 10.0604C6.91162 10.6752 7.23016 11.2396 7.69702 11.6819C8.16388 12.1243 8.75808 12.4248 9.40437 12.5453C10.0507 12.6659 10.72 12.6011 11.3276 12.3592C11.9352 12.1173 12.4538 11.7092 12.8177 11.1864C13.1816 10.6637 13.3744 10.0499 13.3718 9.4227C13.3657 8.58459 13.0122 7.78268 12.3883 7.19154C11.7644 6.60039 10.9206 6.26786 10.0405 6.26632Z" fill="white"/>
<path d="M16.5729 4.36353C16.5722 4.58939 16.5012 4.80998 16.369 4.99746C16.2367 5.18494 16.0491 5.3309 15.8298 5.4169C15.6105 5.50291 15.3694 5.52511 15.1368 5.4807C14.9043 5.43629 14.6908 5.32726 14.5233 5.16738C14.3558 5.0075 14.2418 4.80394 14.1956 4.58239C14.1495 4.36085 14.1734 4.13126 14.2642 3.92261C14.355 3.71396 14.5086 3.53561 14.7058 3.41008C14.903 3.28455 15.1347 3.21746 15.3719 3.2173C15.53 3.21662 15.6867 3.24583 15.8329 3.30323C15.9791 3.36062 16.1119 3.44507 16.2236 3.55167C16.3353 3.65828 16.4237 3.78493 16.4837 3.92429C16.5436 4.06364 16.5739 4.21294 16.5729 4.36353Z" fill="white"/>
<path d="M14.3409 0.887634H5.65987C3.04895 0.887634 0.932373 2.9033 0.932373 5.38975V13.6104C0.932373 16.0968 3.04895 18.1125 5.65987 18.1125H14.3409C16.9518 18.1125 19.0684 16.0968 19.0684 13.6104V5.38975C19.0684 2.9033 16.9518 0.887634 14.3409 0.887634Z" stroke="white" stroke-width="2" stroke-miterlimit="10"/>
</g>
<defs>
<clipPath id="clip0_552_1621">
<rect width="20" height="19" fill="white"/>
</clipPath>
</defs>
</svg>
