<svg width="114" height="115" viewBox="0 0 114 115" fill="none" xmlns="http://www.w3.org/2000/svg">
<path d="M0 10.4438C0.193084 9.77844 0.368344 9.10711 0.582222 8.45062C2.22195 3.43341 6.69852 0.225252 12.1465 0.222282C30.935 0.2104 49.7265 0.21337 68.515 0.234164C69.5428 0.234164 70.5944 0.347044 71.5895 0.587657C77.0642 1.92736 80.6377 6.54355 80.6645 12.3955C80.7061 21.6962 80.6793 30.9969 80.6704 40.2946C80.6674 42.1155 79.7822 43.1582 78.291 43.1611C76.8087 43.1671 75.8968 42.1096 75.8968 40.3095C75.8879 31.0088 75.9027 21.7081 75.8879 12.4103C75.8819 8.83976 73.9184 6.12471 70.7132 5.25137C69.9379 5.04047 69.1062 4.95432 68.2982 4.95432C49.6582 4.93947 31.0152 4.9365 12.3752 4.94541C7.72929 4.94838 4.72907 7.95752 4.72907 12.6094C4.72313 37.5469 4.72313 62.4814 4.72907 87.4189C4.72907 92.1272 7.73226 95.1007 12.4702 95.1066C22.9592 95.1155 33.4451 95.1096 43.934 95.1096C44.341 95.1096 44.7509 95.0977 45.1578 95.1274C46.4946 95.2195 47.3857 96.1255 47.4125 97.4028C47.4392 98.7128 46.5183 99.7139 45.1727 99.8238C44.8786 99.8476 44.5816 99.8357 44.2845 99.8357C33.6857 99.8357 23.0869 99.7585 12.4881 99.8624C5.51923 99.9308 0.843628 94.8987 0.175261 89.8785C0.163379 89.7835 0.0653516 89.6973 0.00594118 89.6082C1.36112e-07 63.2181 0 36.831 0 10.4438Z" fill="#F79D31"/>
<path d="M80.51 114.064C78.4514 113.64 76.3572 113.343 74.3432 112.772C62.6512 109.454 53.909 99.1465 52.4534 87.0743C50.4483 70.4246 61.6739 55.5096 78.288 52.7529C94.7091 50.029 110.904 61.7328 113.438 78.1539C116.026 94.9403 105.382 110.209 88.7769 113.521C87.7313 113.729 86.6768 113.886 85.6252 114.067C83.9201 114.064 82.2151 114.064 80.51 114.064ZM83.626 109.321C98.2024 108.777 109.636 96.8087 109.125 82.6334C108.593 67.8016 96.5627 56.5998 81.7665 57.1612C67.5645 57.6989 56.3953 70.0028 56.9567 84.493C57.4944 98.4069 69.7715 109.837 83.626 109.321Z" fill="#F79D31"/>
<path d="M40.3931 38.1855C42.6537 38.1855 44.9113 38.1648 47.1718 38.1885C54.0783 38.2598 59.0688 43.1136 59.3124 50.0082C59.3658 51.4875 59.348 52.9698 59.3183 54.4521C59.2886 56.077 58.3499 57.1137 56.9597 57.1315C55.5339 57.1493 54.5774 56.0799 54.5476 54.3927C54.5209 52.8005 54.5773 51.2053 54.512 49.6161C54.3605 45.9921 51.3959 42.9948 47.7659 42.9384C42.8052 42.8611 37.8385 42.8582 32.8777 42.9384C29.1111 43.0008 26.2029 46.1287 26.0871 50.0706C26.0455 51.5143 26.0901 52.9579 26.0722 54.4016C26.0544 56.0859 25.1038 57.1582 23.681 57.1315C22.3086 57.1077 21.3105 56.0265 21.3669 54.4343C21.4531 51.9272 21.3224 49.3577 21.8482 46.9367C22.9265 41.973 27.5486 38.3786 32.6163 38.2242C35.2066 38.144 37.7999 38.2093 40.3931 38.2093C40.3931 38.2034 40.3931 38.1945 40.3931 38.1855Z" fill="#F79D31"/>
<path d="M40.3813 33.397C35.1353 33.4267 30.9053 29.2502 30.8697 24.0102C30.834 18.7702 35.0225 14.4927 40.2268 14.454C45.4935 14.4125 49.8067 18.6692 49.8186 23.9122C49.8275 29.1343 45.6124 33.3703 40.3813 33.397ZM40.3337 28.6769C42.9211 28.6739 45.0895 26.5084 45.0836 23.93C45.0777 21.3486 42.9032 19.1772 40.3219 19.1831C37.7345 19.1861 35.5839 21.3486 35.5869 23.9448C35.5898 26.547 37.7286 28.6799 40.3337 28.6769Z" fill="#F79D31"/>
<path d="M30.9202 71.3722C26.2178 71.3722 21.5155 71.39 16.8132 71.3633C14.8051 71.3514 13.6199 69.4919 14.5407 67.8611C15.0487 66.964 15.8596 66.6372 16.8696 66.6431C19.7956 66.658 22.7186 66.6491 25.6445 66.6491C31.9747 66.6491 38.3079 66.6461 44.638 66.6521C46.2629 66.655 47.2224 67.368 47.3887 68.6423C47.5937 70.2137 46.5332 71.3633 44.8044 71.3692C40.1763 71.3811 35.5482 71.3722 30.9202 71.3722Z" fill="#F79D31"/>
<path d="M28.4695 85.6009C24.5484 85.6009 20.6243 85.6128 16.7032 85.592C15.417 85.5861 14.4545 84.7484 14.2644 83.5928C14.0951 82.5621 14.6773 81.4481 15.6754 81.0857C16.1448 80.9164 16.6884 80.8867 17.1963 80.8867C21.1917 80.8719 25.19 80.8778 29.1854 80.8778C32.7381 80.8778 36.2908 80.8719 39.8406 80.8808C41.6199 80.8867 42.7101 81.8076 42.6923 83.2572C42.6745 84.7068 41.5754 85.5979 39.7901 85.6009C36.0175 85.6068 32.245 85.6039 28.4695 85.6009Z" fill="#F79D31"/>
<path d="M78.0475 89.3884C82.3161 84.5138 86.362 79.8887 90.4078 75.2665C91.2871 74.2625 92.1426 73.2436 93.0516 72.2663C94.0556 71.185 95.4012 71.0781 96.4142 71.9425C97.445 72.8218 97.5549 74.2863 96.5776 75.4091C91.1296 81.6621 85.6698 87.9002 80.1922 94.1294C79.0842 95.3889 77.6851 95.4423 76.5028 94.2719C73.3927 91.2034 70.3033 88.114 67.2348 85.0039C66.1862 83.9405 66.1921 82.473 67.1575 81.5373C68.117 80.6075 69.5429 80.6521 70.6271 81.7185C72.8461 83.8989 75.0354 86.106 77.2276 88.3131C77.5098 88.6012 77.7207 88.9606 78.0475 89.3884Z" fill="#F79D31"/>
</svg>
