<svg width="60" height="64" viewBox="0 0 60 64" fill="none" xmlns="http://www.w3.org/2000/svg">
<path d="M44.2488 41.7812C51.8544 37.6181 57.6199 34.4459 58.1169 34.1993C59.7066 33.3565 61.3484 31.1258 58.1169 29.3932C57.0735 28.8482 51.456 25.7748 44.2488 21.8113L34.2575 31.8703L44.2488 41.7809V41.7812Z" fill="#FFD900"/>
<path d="M34.2576 31.8704L2.44427 63.8337C3.19101 63.9323 4.03404 63.7349 5.02796 63.1902C7.11469 62.0515 29.2359 50.0085 44.2488 41.7836L34.2576 31.8704Z" fill="#F43249"/>
<path d="M34.2576 31.8701L44.2488 21.8606C44.2488 21.8606 7.26558 1.74012 5.02796 0.552378C4.18493 0.0546264 3.24021 -0.0932276 2.39484 0.0546264L34.2576 31.8701V31.8701Z" fill="#00EE76"/>
<path d="M34.2576 31.8702L2.39484 0.0546875C1.10171 0.352731 0.00891113 1.49165 0.00891113 3.82088V60.0673C0.00891113 62.1991 0.85452 63.7347 2.44428 63.8828L34.2576 31.8702Z" fill="#00D3FF"/>
</svg>
