<svg width="130" height="123" viewBox="0 0 130 123" fill="none" xmlns="http://www.w3.org/2000/svg">
<path d="M40.2 34.5194L40.2001 34.5108V34.5022C40.2001 25.0233 42.5355 17.5597 46.9424 11.8361C51.1972 6.31001 57.0446 3.5 64.9167 3.5C72.7888 3.5 78.6362 6.31001 82.891 11.8361C87.2978 17.5598 89.6333 25.0233 89.6333 34.5022V34.5108L89.6333 34.5194C89.6906 46.1807 85.9485 55.0816 78.6266 61.6381L78.5992 61.6627L78.5723 61.6878C76.5498 63.577 75.9019 66.0993 76.4239 68.6892L76.5111 69.1219L76.703 69.5195L78.8119 73.8875C79.7636 75.9346 81.2083 77.6007 83.1215 78.793C84.8093 79.8448 87.9425 81.1325 92.1334 82.6395L92.1757 82.6547L92.2184 82.6689C92.4216 82.7361 96.3363 83.9953 103.911 86.4303C107.704 87.6495 110.6 88.5911 112.605 89.2569C113.609 89.5903 114.377 89.8505 114.918 90.0397C115.42 90.2153 115.595 90.2858 115.596 90.2828C115.596 90.2821 115.586 90.2771 115.569 90.2682L115.66 90.3135L115.771 90.3594C120.528 92.3267 123.076 94.1348 124.183 95.5395C124.741 96.9837 125.302 99.7809 125.701 104.296C126.054 108.284 126.262 113.346 126.318 119.5H3.51543C3.57138 113.346 3.77909 108.284 4.13187 104.295C4.53114 99.7809 5.09252 96.9837 5.65041 95.5395C6.75735 94.1348 9.30532 92.3267 14.0627 90.3594L14.1735 90.3135L14.2675 90.2669C14.248 90.2765 14.2372 90.282 14.2375 90.2828C14.2388 90.2858 14.4136 90.2153 14.9155 90.0397C15.4563 89.8505 16.2245 89.5903 17.2285 89.2569C19.2333 88.5911 22.1292 87.6495 25.922 86.4303C33.497 83.9953 37.4117 82.7361 37.6149 82.6689L37.6576 82.6547L37.7 82.6395C41.8909 81.1325 45.0241 79.8448 46.7119 78.793C48.6251 77.6006 50.0698 75.9344 51.0216 73.8873L53.1303 69.5195L53.3223 69.1219L53.4095 68.6892C53.9314 66.0993 53.2835 63.577 51.2611 61.6878L51.2342 61.6627L51.2068 61.6381C43.8848 55.0816 40.1427 46.1807 40.2 34.5194Z" fill="white" stroke="#575555" stroke-width="7"/>
</svg>
