<svg width="101" height="125" viewBox="0 0 101 125" fill="none" xmlns="http://www.w3.org/2000/svg">
<path d="M67.3985 1.66483H9.0475C4.60299 1.66483 1 5.26782 1 9.71233V115.952C1 120.397 4.60299 124 9.0475 124H67.3985C71.843 124 75.446 120.397 75.446 115.952V9.71233C75.446 5.26782 71.843 1.66483 67.3985 1.66483Z" fill="#9B9B9A"/>
<path d="M67.0661 104.483H9.37773C8.81414 104.481 8.27416 104.256 7.87585 103.857C7.47753 103.459 7.25329 102.918 7.25214 102.355V17.2744C7.25329 16.7104 7.47784 16.1699 7.87662 15.7711C8.27541 15.3723 8.81595 15.1478 9.37991 15.1466H67.0661C67.63 15.1478 68.1706 15.3723 68.5694 15.7711C68.9682 16.1699 69.1927 16.7104 69.1939 17.2744V102.355C69.2111 102.639 69.1679 102.923 69.067 103.189C68.9662 103.455 68.81 103.697 68.6089 103.898C68.4078 104.099 68.1663 104.255 67.9003 104.356C67.6343 104.457 67.35 104.5 67.0661 104.483Z" fill="white"/>
<path d="M71.2034 1C65.5777 0.998199 60.0773 2.66147 55.3952 5.78025C50.7131 8.89903 47.0589 13.3338 44.8928 18.5258C42.7267 23.7178 42.1457 29.4347 43.2231 34.9563C44.3005 40.4779 46.9879 45.5571 50.9469 49.554L45.1015 68.3191L60.7876 56.0204C64.6896 57.5548 68.882 58.2093 73.066 57.9373C77.25 57.6652 81.3223 56.4733 84.9928 54.4465C88.6632 52.4198 91.8411 49.6081 94.3001 46.2121C96.759 42.816 98.4383 38.9192 99.2182 34.7995C99.998 30.6799 99.8593 26.4389 98.8119 22.3791C97.7644 18.3192 95.834 14.5405 93.1584 11.3124C90.4828 8.08428 87.1278 5.48632 83.3328 3.70378C79.5378 1.92123 75.3962 0.998031 71.2034 1Z" fill="#F79D31"/>
<path d="M69.1939 66.1519V102.355C69.2111 102.639 69.1679 102.923 69.067 103.189C68.9662 103.455 68.81 103.696 68.6089 103.898C68.4078 104.099 68.1663 104.255 67.9003 104.356C67.6343 104.457 67.35 104.5 67.0661 104.483H9.37773C8.81414 104.481 8.27416 104.256 7.87585 103.857C7.47753 103.459 7.25329 102.918 7.25214 102.355V17.2743C7.25329 16.7103 7.47784 16.1698 7.87662 15.771C8.27541 15.3722 8.81595 15.1477 9.37991 15.1465H39.0288" stroke="black" stroke-width="2" stroke-linecap="round" stroke-linejoin="round"/>
<path d="M38.2219 118.043C40.5709 118.043 42.4752 116.139 42.4752 113.79C42.4752 111.441 40.5709 109.536 38.2219 109.536C35.8728 109.536 33.9685 111.441 33.9685 113.79C33.9685 116.139 35.8728 118.043 38.2219 118.043Z" fill="black"/>
<path d="M42.882 8.7654H27.5874" stroke="black" stroke-width="2" stroke-linecap="round" stroke-linejoin="round"/>
<path d="M75.446 64.8246V115.952C75.4402 118.085 74.5905 120.129 73.0825 121.637C71.5746 123.145 69.531 123.994 67.3985 124H9.0475C6.91495 123.994 4.87138 123.145 3.36343 121.637C1.85548 120.129 1.00577 118.085 1 115.952V9.71233C1.00577 7.57977 1.85548 5.53621 3.36343 4.02826C4.87138 2.52031 6.91495 1.6706 9.0475 1.66483H50.8333" stroke="black" stroke-width="2" stroke-linecap="round" stroke-linejoin="round"/>
<path d="M72.531 41.8148V29.2516H66.1826" stroke="#575555" stroke-width="2.5" stroke-linecap="round" stroke-linejoin="round"/>
<path d="M78.5666 41.8148H66.0383" stroke="#575555" stroke-width="2.5" stroke-linecap="round" stroke-linejoin="round"/>
<path d="M71.8683 22.5096C74.1739 22.5096 76.043 20.6405 76.043 18.335C76.043 16.0294 74.1739 14.1603 71.8683 14.1603C69.5627 14.1603 67.6937 16.0294 67.6937 18.335C67.6937 20.6405 69.5627 22.5096 71.8683 22.5096Z" fill="#575555"/>
<path d="M71.2035 1.00001C65.5176 0.995475 59.9604 2.69267 55.2471 5.87316C50.5339 9.05366 46.8803 13.5719 44.7567 18.8464C42.633 24.1208 42.1364 29.9102 43.3308 35.4693C44.5252 41.0283 47.356 46.1028 51.4587 50.0395L45.7642 68.3213L61.2404 56.1888C65.148 57.6487 69.3284 58.2328 73.4865 57.8999C77.6446 57.567 81.6789 56.3252 85.3045 54.2622C88.93 52.1992 92.0584 49.3653 94.4687 45.9607C96.879 42.5562 98.5123 38.6639 99.2534 34.5589C99.9945 30.4538 99.8253 26.2361 98.7577 22.2037C97.6901 18.1712 95.7501 14.4223 93.0748 11.2218C90.3995 8.02131 87.0541 5.44721 83.2749 3.68134C79.4957 1.91546 75.3749 1.00089 71.2035 1.0022V1.00001Z" stroke="black" stroke-width="2" stroke-linecap="round" stroke-linejoin="round"/>
</svg>
