<svg width="123" height="123" viewBox="0 0 123 123" fill="none" xmlns="http://www.w3.org/2000/svg">
<path d="M49.8882 0.200012C41.2741 0.199328 32.8096 2.45111 25.3346 6.73192C17.8595 11.0127 11.6338 17.1738 7.27508 24.6037C2.91638 32.0336 0.576264 40.4741 0.486927 49.0877C0.397591 57.7013 2.56214 66.1885 6.76579 73.7072L0.716196 89.5304C0.213296 90.8457 0.0857281 92.2749 0.347726 93.6585C0.609723 95.0422 1.25098 96.3258 2.19996 97.3662C3.14894 98.4066 4.36832 99.1629 5.72206 99.5507C7.07581 99.9385 8.51068 99.9426 9.86659 99.5624L28.7678 94.2652C35.463 97.4287 42.7838 99.0465 50.1886 98.999C57.5934 98.9515 64.8928 97.2399 71.5469 93.9909C78.201 90.7418 84.0395 86.0384 88.6307 80.2286C93.2218 74.4187 96.4481 67.651 98.0709 60.426C99.6937 53.2011 99.6715 45.7037 98.0059 38.4885C96.3403 31.2733 93.074 24.5248 88.4485 18.7423C83.823 12.9597 77.9566 8.29099 71.2834 5.08144C64.6102 1.87188 57.3007 0.203608 49.8958 0.200012H49.8882ZM8.08819 49.6C8.09158 40.4909 11.0705 31.6322 16.5716 24.3718C22.0728 17.1114 29.7951 11.8467 38.5635 9.37882C47.332 6.91093 56.6666 7.37492 65.1471 10.7002C73.6276 14.0254 80.7898 20.0299 85.5438 27.8001C90.2979 35.5702 92.3836 44.6807 91.4837 53.7452C90.5837 62.8098 86.7474 71.3323 80.5583 78.016C74.3692 84.6997 66.1662 89.1787 57.1974 90.7715C48.2286 92.3644 38.985 90.9838 30.873 86.84L29.5506 86.156L7.81459 92.2436L15.179 72.97L14.2062 71.374C10.1945 64.8206 8.07684 57.2838 8.08819 49.6ZM72.407 121.8C65.2959 121.808 58.2673 120.277 51.8037 117.312C45.3402 114.347 39.5947 110.019 34.9618 104.624C39.2406 105.787 43.7246 106.456 48.3378 106.577C55.3756 111.548 63.7831 114.212 72.3994 114.2C79.2546 114.2 85.7146 112.551 91.4146 109.64L92.737 108.956L114.473 115.044L107.109 95.77L108.081 94.174C111.957 87.8356 114.199 80.3876 114.199 72.4C114.211 63.9606 111.656 55.7172 106.873 48.764C106.81 44.2428 106.211 39.745 105.087 35.3652C110.345 39.9954 114.556 45.6937 117.438 52.08C120.32 58.4663 121.807 65.3936 121.799 72.4C121.799 81.1476 119.519 89.3708 115.529 96.5072L121.571 112.33C122.074 113.646 122.202 115.075 121.94 116.459C121.678 117.842 121.037 119.126 120.088 120.166C119.139 121.207 117.919 121.963 116.566 122.351C115.212 122.738 113.777 122.743 112.421 122.362L93.5198 117.065C87.113 120.105 79.9462 121.8 72.3918 121.8H72.407Z" fill="#575555"/>
</svg>
