<svg width="123" height="123" viewBox="0 0 123 123" fill="none" xmlns="http://www.w3.org/2000/svg">
<path d="M88.4068 76.8749C85.5296 76.8893 82.6925 77.5496 80.1046 78.8069C77.5167 80.0643 75.2441 81.8867 73.4546 84.1396L45.3568 66.5736C46.3808 63.2686 46.3808 59.7311 45.3568 56.4261L73.4546 38.8602C76.3064 42.3915 80.3161 44.7995 84.7734 45.6575C89.2306 46.5155 93.8477 45.7683 97.8068 43.5481C101.766 41.3279 104.811 37.7781 106.404 33.5275C107.996 29.277 108.033 24.5999 106.507 20.325C104.981 16.05 101.991 12.4531 98.0675 10.1713C94.1436 7.88955 89.5388 7.07026 85.0687 7.85855C80.5986 8.64685 76.5518 10.9919 73.6451 14.4782C70.7384 17.9645 69.1595 22.3671 69.188 26.9061C69.2062 28.625 69.4649 30.3328 69.9568 31.9799L41.859 49.5458C39.3784 46.4231 35.9878 44.1494 32.1572 43.0399C28.3265 41.9303 24.2456 42.04 20.4801 43.3536C16.7145 44.6672 13.4509 47.1197 11.1416 50.3711C8.83225 53.6225 7.5916 57.5118 7.5916 61.4999C7.5916 65.4879 8.83225 69.3773 11.1416 72.6287C13.4509 75.8801 16.7145 78.3326 20.4801 79.6462C24.2456 80.9598 28.3265 81.0694 32.1572 79.9599C35.9878 78.8504 39.3784 76.5767 41.859 73.4539L69.9568 91.0199C69.4649 92.6669 69.2062 94.3748 69.188 96.0936C69.188 99.8947 70.3152 103.61 72.427 106.771C74.5387 109.931 77.5403 112.395 81.0521 113.849C84.5638 115.304 88.4281 115.685 92.1562 114.943C95.8842 114.202 99.3087 112.371 101.996 109.683C104.684 106.996 106.515 103.571 107.256 99.843C107.998 96.1149 107.617 92.2507 106.163 88.7389C104.708 85.2271 102.245 82.2256 99.0841 80.1138C95.9236 78.002 92.2079 76.8749 88.4068 76.8749ZM88.4068 15.3749C90.6874 15.3749 92.9169 16.0512 94.8132 17.3182C96.7095 18.5853 98.1875 20.3862 99.0603 22.4933C99.933 24.6004 100.161 26.9189 99.7165 29.1558C99.2715 31.3926 98.1733 33.4473 96.5606 35.0599C94.9479 36.6726 92.8932 37.7709 90.6564 38.2158C88.4196 38.6607 86.101 38.4324 83.9939 37.5596C81.8869 36.6868 80.086 35.2088 78.8189 33.3125C77.5518 31.4162 76.8755 29.1868 76.8755 26.9061C76.8755 23.8478 78.0904 20.9148 80.2529 18.7523C82.4155 16.5898 85.3485 15.3749 88.4068 15.3749ZM26.9068 73.0311C24.6261 73.0311 22.3967 72.3548 20.5004 71.0878C18.604 69.8207 17.1261 68.0197 16.2533 65.9127C15.3805 63.8056 15.1522 61.4871 15.5971 59.2502C16.042 57.0134 17.1403 54.9587 18.7529 53.346C20.3656 51.7334 22.4203 50.6351 24.6571 50.1902C26.894 49.7453 29.2125 49.9736 31.3196 50.8464C33.4267 51.7192 35.2276 53.1971 36.4947 55.0934C37.7617 56.9898 38.438 59.2192 38.438 61.4999C38.438 64.5581 37.2231 67.4912 35.0606 69.6537C32.8981 71.8162 29.9651 73.0311 26.9068 73.0311ZM88.4068 107.625C86.1261 107.625 83.8967 106.949 82.0004 105.682C80.104 104.414 78.6261 102.613 77.7533 100.506C76.8805 98.3994 76.6522 96.0808 77.0971 93.844C77.542 91.6071 78.6403 89.5525 80.2529 87.9398C81.8656 86.3271 83.9203 85.2289 86.1571 84.7839C88.394 84.339 90.7125 84.5674 92.8196 85.4401C94.9267 86.3129 96.7276 87.7909 97.9947 89.6872C99.2617 91.5835 99.938 93.813 99.938 96.0936C99.938 99.1519 98.7231 102.085 96.5606 104.247C94.3981 106.41 91.465 107.625 88.4068 107.625Z" fill="#575555"/>
</svg>
